<?xml version="1.0" encoding="UTF-8" standalone="no"?>
<!-- Created with Inkscape (http://www.inkscape.org/) -->

<svg
   xmlns:dc="http://purl.org/dc/elements/1.1/"
   xmlns:cc="http://creativecommons.org/ns#"
   xmlns:rdf="http://www.w3.org/1999/02/22-rdf-syntax-ns#"
   xmlns:svg="http://www.w3.org/2000/svg"
   xmlns="http://www.w3.org/2000/svg"
   xmlns:sodipodi="http://sodipodi.sourceforge.net/DTD/sodipodi-0.dtd"
   xmlns:inkscape="http://www.inkscape.org/namespaces/inkscape"
   width="100%"
   height="100%"
   id="svg4213"
   version="1.1"
   inkscape:version="0.91 r13725"
   viewBox="0 0 800 600"
   sodipodi:docname="ikoni1.svg">
  <defs
     id="defs4215" />
  <metadata
     id="metadata4218">
    <rdf:RDF>
      <cc:Work
         rdf:about="">
        <dc:format>image/svg+xml</dc:format>
        <dc:type
           rdf:resource="http://purl.org/dc/dcmitype/StillImage" />
        <dc:title></dc:title>
      </cc:Work>
    </rdf:RDF>
  </metadata>
  <g
     id="layer1"
     inkscape:label="Layer 1"
     inkscape:groupmode="layer">
    <g
       id="Layer_2"
       transform="matrix(16.989928,0,0,16.989928,150.26683,64.671088)">
      <g
         id="g3454">
        <g
           id="g3456">
          <g
             id="XMLID_4_">
            <g
               id="g3459">
              <path
                 class="st0"
                 d="m 10.6,15.8 2.8,2.8 7,-7 -7,-7 -2.8,2.8 4.2,4.2 -4.2,4.2 z m 19.2,-14.1 0,20.8 c 0,0.5 -0.4,0.8 -0.8,0.8 L 21.4,22.4 C 19.6,22.2 17.8,22.4 16,23 L 14.9,23.4 13.8,23 C 12.1,22.4 10.2,22.2 8.4,22.4 L 0.8,23.3 C 0.4,23.3 0,22.9 0,22.5 L 0,1.7 C 0,1.3 0.3,1 0.7,1 L 8.5,0.1 c 1.8,-0.2 3.6,0 5.4,0.6 L 14.9,1 16,0.7 c 1.7,-0.6 3.6,-0.8 5.4,-0.6 L 29.1,1 c 0.4,0 0.7,0.3 0.7,0.7 z"
                 id="path3461"
                 inkscape:connector-curvature="0"
                 style="fill:#019ecd" />
            </g>
          </g>
        </g>
        <g
           id="g3463">
          <g
             id="XMLID_2_">
            <g
               id="g3466">
              <path
                 class="st0"
                 d="m 21.4,24.4 6.9,0.9 c 0.1,0 0.2,0.1 0.2,0.2 0,0.1 -0.1,0.2 -0.2,0.2 l -6.9,-0.4 c -2,-0.1 -3.6,0.2 -5.3,0.8 0,0 -1.1,0.4 -1.2,0.4 0,0 -1.2,-0.4 -1.2,-0.4 C 12,25.5 10.4,25.2 8.4,25.3 l -6.9,0.4 c -0.1,0 -0.2,-0.1 -0.2,-0.2 0,-0.1 0.1,-0.2 0.1,-0.2 l 6.9,-0.9 c 1.8,-0.2 3.7,0 5.4,0.6 L 14.8,25.4 16,25 c 1.7,-0.6 3.6,-0.8 5.4,-0.6 z"
                 id="path3468"
                 inkscape:connector-curvature="0"
                 style="fill:#019ecd" />
            </g>
          </g>
        </g>
      </g>
    </g>
  </g>
</svg>
