<?xml version="1.0" encoding="UTF-8" standalone="no"?>
<!-- Created with Inkscape (http://www.inkscape.org/) -->

<svg
   xmlns:dc="http://purl.org/dc/elements/1.1/"
   xmlns:cc="http://creativecommons.org/ns#"
   xmlns:rdf="http://www.w3.org/1999/02/22-rdf-syntax-ns#"
   xmlns:svg="http://www.w3.org/2000/svg"
   xmlns="http://www.w3.org/2000/svg"
   xmlns:sodipodi="http://sodipodi.sourceforge.net/DTD/sodipodi-0.dtd"
   xmlns:inkscape="http://www.inkscape.org/namespaces/inkscape"
   width="100%"
   height="100%"
   id="svg4213"
   version="1.1"
   inkscape:version="0.91 r13725"
   viewBox="0 0 800 600"
   sodipodi:docname="ikoni3.svg">
  <defs
     id="defs4215" />
  <metadata
     id="metadata4218">
    <rdf:RDF>
      <cc:Work
         rdf:about="">
        <dc:format>image/svg+xml</dc:format>
        <dc:type
           rdf:resource="http://purl.org/dc/dcmitype/StillImage" />
        <dc:title />
      </cc:Work>
    </rdf:RDF>
  </metadata>
  <g
     id="layer1"
     inkscape:label="Layer 1"
     inkscape:groupmode="layer">
    <g
       id="Layer_4"
       transform="matrix(16.989928,0,0,16.989928,150.26683,64.671088)">
      <g
         id="g3485">
        <g
           id="g3487">
          <g
             id="XMLID_116_">
            <g
               id="g3490">
              <path
                 class="st0"
                 d="m 29.8,1.7 0,20.8 c 0,0.4 -0.4,0.8 -0.8,0.7 l -7.6,-0.9 c -1.8,-0.2 -3.6,0 -5.4,0.6 l -1.1,0.4 -1.1,-0.4 C 12.1,22.3 10.3,22.1 8.4,22.3 L 0.8,23.2 C 0.4,23.2 0,22.9 0,22.4 L 0,1.7 C 0,1.3 0.3,1 0.7,0.9 L 8.5,0 c 1.8,-0.2 3.6,0 5.4,0.6 L 14.9,1 16,0.7 c 1.7,-0.6 3.5,-0.8 5.4,-0.6 L 29.2,1 c 0.3,0 0.6,0.3 0.6,0.7 z m -9.2,13.9 c 0,-0.2 0,-0.3 -0.1,-0.4 C 20.4,15.1 20.3,15 20.2,15 l -0.1,0 c -0.4,0.6 -1,1.1 -1.8,1.5 -0.7,0.4 -1.5,0.6 -2.2,0.6 -1.4,0 -2.6,-0.4 -3.3,-1.3 -0.8,-0.9 -1.2,-2.1 -1.2,-3.8 0,-0.6 0,-1.2 0.1,-1.7 l 8.4,0 c 0.4,0 0.6,-0.1 0.6,-0.4 0,-1.3 -0.5,-2.4 -1.6,-3.4 -1.1,-1 -2.4,-1.6 -4,-1.6 -1.9,0 -3.5,0.7 -4.7,2.1 -1.2,1.3 -1.8,3 -1.8,5 0,2 0.6,3.6 1.9,5 1.3,1.3 2.8,2 4.6,2 0.8,0 1.6,-0.2 2.4,-0.5 0.8,-0.4 1.5,-0.9 2.1,-1.6 0.7,-0.7 1,-1.1 1,-1.3 z"
                 id="path3492"
                 inkscape:connector-curvature="0"
                 style="fill:#019ecd" />
              <path
                 class="st0"
                 d="m 16.6,6.7 c 0.5,0.5 0.7,1 0.7,1.7 0,0.3 -0.1,0.4 -0.4,0.5 -0.2,0.1 -0.6,0.2 -1.2,0.2 l -3.8,0.1 c 0.2,-1 0.5,-1.7 1,-2.3 0.5,-0.6 1.2,-0.9 1.9,-0.9 0.7,0 1.3,0.2 1.8,0.7 z"
                 id="path3494"
                 inkscape:connector-curvature="0"
                 style="fill:#019ecd" />
            </g>
          </g>
        </g>
        <g
           id="g3496">
          <g
             id="XMLID_114_">
            <g
               id="g3499">
              <path
                 class="st0"
                 d="m 28.3,25.2 c 0.1,0 0.2,0.1 0.2,0.2 0,0.1 -0.1,0.2 -0.2,0.2 l -6.9,-0.4 c -2,-0.1 -3.6,0.2 -5.3,0.8 0,0 -1.1,0.4 -1.2,0.4 0,0 -1.2,-0.4 -1.2,-0.4 C 12,25.4 10.4,25.2 8.4,25.2 l -6.9,0.4 c -0.1,0 -0.2,-0.1 -0.2,-0.2 0,-0.1 0.1,-0.2 0.1,-0.2 l 6.9,-0.9 c 1.8,-0.2 3.7,0 5.4,0.6 L 14.8,25.3 16,25 c 1.7,-0.6 3.6,-0.8 5.4,-0.6 l 6.9,0.8 z"
                 id="path3501"
                 inkscape:connector-curvature="0"
                 style="fill:#019ecd" />
            </g>
          </g>
        </g>
      </g>
    </g>
  </g>
</svg>
