<?xml version="1.0" encoding="utf-8"?>
<!-- Generator: Adobe Illustrator 19.1.0, SVG Export Plug-In . SVG Version: 6.00 Build 0)  -->
<svg version="1.1" id="Layer_1" xmlns="http://www.w3.org/2000/svg" xmlns:xlink="http://www.w3.org/1999/xlink" x="0px" y="0px"
	 viewBox="0 0 15.2 8" style="enable-background:new 0 0 15.2 8;" xml:space="preserve">
<style type="text/css">
	.st0{fill:#00ACD5;}
</style>
<g>
	<g id="XMLID_18_">
		<g>
			<path class="st0" d="M7.5,0.7c0.5,0,0.9,0.2,1.3,0.5c0.3,0.3,0.5,0.7,0.5,1.2c0,0.2-0.1,0.3-0.2,0.4C8.9,2.7,8.6,2.8,8.2,2.8
				L5.6,2.9c0.1-0.7,0.4-1.2,0.7-1.6C6.6,0.9,7.1,0.7,7.5,0.7z"/>
			<path class="st0" d="M9.9,7.6C9.4,7.8,8.9,8,8.4,8c-1,0-1.7-0.3-2.2-0.9C5.7,6.5,5.4,5.7,5.4,4.6c0-0.4,0-0.8,0.1-1.1h5.6
				c0.2,0,0.4-0.1,0.4-0.3c0-0.8-0.4-1.6-1.1-2.3C9.9,0.5,9.4,0.2,8.9,0h6.3v8h-4.7c0.1-0.1,0.1-0.1,0.2-0.2
				c0.4-0.4,0.6-0.7,0.6-0.9c0-0.1,0-0.2-0.1-0.3c-0.1-0.1-0.1-0.1-0.2-0.1l-0.1,0C10.8,7,10.4,7.3,9.9,7.6z"/>
			<path class="st0" d="M0,0h6.5C5.8,0.2,5.2,0.6,4.6,1.2c-0.8,0.9-1.2,2-1.2,3.4c0,1.3,0.4,2.4,1.2,3.3C4.7,7.9,4.7,8,4.8,8H0V0z"
				/>
		</g>
	</g>
</g>
</svg>
