<svg width="20" height="20" xmlns="http://www.w3.org/2000/svg">
    <path d="M15.4 0c.831 0 1.52.642 1.593 1.455L17 1.6V4h1.4c.88 0 1.6.72 1.6 1.6V20l-3-3H4.6c-.88 0-1.6-.72-1.6-1.6V13l-3 3V1.6C0 .769.642.08 1.455.007L1.6 0h13.8zM18 6H5v9h12l1 1V6zm-5.871 6.833V14H10.87v-1.167h1.258zM11.5 7C12.9 7 14 8 14 9.3c0 1.42-1.68 1.631-1.856 2.754l-.015.196H10.87c0-1.91 1.879-1.79 1.879-2.95 0-.616-.586-1.16-1.25-1.16-.623 0-1.176.478-1.243 1.046l-.007.114H9C9 8.008 10.1 7 11.5 7zM15 2H2v10l.997-1L3 10.999V5.6C3 4.72 3.72 4 4.6 4h10.399L15 2z"/>
</svg>
