<svg width="21" height="20" xmlns="http://www.w3.org/2000/svg">
    <path d="M12 0c.447 0 .926.333.992.758l.008.1V6h6.125a.87.87 0 01.875.857V20l-3-3H8c-.481 0-1-.529-1-1v-5H3l-3 3V.857C0 .422.336.06.766.007L.875 0H12zm.999 7.999L9 8l-.001 2.999h3.014L12 11H8.999L9 15h8l1 1V8l-5-.001V9h1l2 5h-1l-.648-1.5H12.64L12 14h-1l1.999-4.997V7.999zm.501 2.444l-.423 1.057h.846l-.423-1.057zM11 2H2v8l1-1 4-.001V7.616l-.276.555-1.198-.6c-.298.27-.636.51-1.012.722l-.29.154-.448.224-.447-.895.447-.223c.283-.141.54-.298.771-.47l-.718-.36.447-.894 1.033.516c.286-.363.498-.774.64-1.233L5.98 5H3V4h2V3h1v1h2v1h-.985l-.03.121a4.882 4.882 0 01-.767 1.68L7 7.19v-.334C7 6.386 7.519 6 8 6h3V2z"/>
</svg>
