<svg width="20" height="20" xmlns="http://www.w3.org/2000/svg">
    <path d="M15 2c1.064 0 2.173.136 3.182.455.682.227 1.273.5 1.818.909v13.272a.489.489 0 01-.455.455c-.09 0-.136 0-.227-.046a7.17 7.17 0 00-1.203-.504c-.988-.316-2.062-.45-3.115-.45-1.545 0-3.773.59-5 1.364-1.318-1-3.227-1.364-5-1.364-1.318 0-3.09.409-4.318 1-.091 0-.137.045-.227.045A.489.489 0 010 16.682V3.364C1.318 2.364 3.227 2 5 2c1.773 0 3.682.364 5 1.364C11.318 2.364 13.227 2 15 2zm0 2c-1.545 0-3.773.587-5 1.36v10.09c1.227-.773 3.455-1.36 5-1.36 1.09 0 2 .132 3 .45V4.45C17 4.132 16.09 4 15 4zm0 6.845c.782 0 1.555.073 2.273.219v1.381A10.67 10.67 0 0015 12.209c-1.636 0-3.064.318-4.09.9V11.6c1.145-.49 2.545-.755 4.09-.755zm0-2.427c.782 0 1.555.082 2.273.218v1.382A10.67 10.67 0 0015 9.782c-1.636 0-3.064.318-4.09.9v-1.51c1.145-.481 2.545-.754 4.09-.754zM15 6c.782 0 1.555.082 2.273.218V7.6c-.7-.155-1.473-.236-2.273-.236-1.636 0-3.064.318-4.09.9v-1.51C12.054 6.265 13.454 6 15 6z"/>
</svg>
