<svg width="20" height="20" xmlns="http://www.w3.org/2000/svg">
    <path d="M18.008 0C19.106 0 20.004.91 20 2.02c-.012 3.375 0 10.996 0 14.384-.002 1.985-1.591 3.594-3.552 3.596H2.26l.026-.001-.03.001.07-.003.068-.002h-.033C.617 19.893.042 18.428.002 16.6L0 16.404v-6.301c-.004-1.06.803-2.013 1.831-2.097L1.98 8H4V2c0-1.121.892-2 2-2h12.008zm-.004 2H6v16h9.449c.627 0 1.201-.25 1.646-.63a2.596 2.596 0 00.91-1.977V2zM4 10H2.051v6.051c.002 1.178.092 1.842 1.323 1.844L4 17.894V10zm9 3v2H8v-2h5zm3-4v2H8V9h8zm0-4v2H8V5h8z"/>
</svg>
