<svg width="21" height="20" xmlns="http://www.w3.org/2000/svg">
    <path d="M12.457 0c.244 0 .44.183.488.417l.359 2.65c.602.25 1.14.583 1.644.983l2.427-1a.492.492 0 01.602.217l1.954 3.45c.13.216.066.5-.114.65l-2.068 1.65c.033.333.065.65.065.983 0 .317-.016.65-.065.967l2.068 1.65c.18.166.245.433.114.65l-1.954 3.45a.492.492 0 01-.602.216l-2.427-1a7.21 7.21 0 01-1.644.984l-.359 2.65c-.049.25-.244.433-.488.433H8.548a.509.509 0 01-.488-.417l-.358-2.65a6.876 6.876 0 01-1.645-.983l-2.427 1a.492.492 0 01-.602-.217l-1.954-3.45a.518.518 0 01.097-.65l2.068-1.65c-.032-.333-.065-.65-.065-.983 0-.333.033-.65.082-.983l-2.068-1.65c-.18-.167-.245-.434-.114-.65l1.954-3.45c.13-.217.374-.3.602-.217l2.427 1a6.818 6.818 0 011.645-.967L8.06.433C8.109.183 8.304 0 8.548 0h3.909zM11.14 2H9.866l-.335 2.477-1.045.446c-.467.2-.86.427-1.162.674l-.925.757L5.295 5.9l-1.183-.488-.676 1.191L5.401 8.17l-.166 1.137a4.67 4.67 0 00-.06.693c0 .1.004.21.014.342.008.11.014.17.041.447l.106 1.08-1.904 1.52.679 1.2 2.268-.935.92.728c.39.309.769.538 1.169.704l1.062.44L9.864 18h1.275l.335-2.477 1.045-.446a5.21 5.21 0 001.187-.711l.92-.729 1.084.447 1.183.489.676-1.192-1.973-1.574.177-1.145a4.46 4.46 0 00.027-1.004c-.009-.11-.014-.17-.041-.447l-.106-1.08.849-.678 1.067-.85-.675-1.192-2.268.935-.92-.728a4.88 4.88 0 00-1.169-.704l-1.061-.44L11.14 2zm-.64 6a2 2 0 110 4 2 2 0 010-4z"/>
</svg>
