<svg width="20" height="20" xmlns="http://www.w3.org/2000/svg">
    <path d="M0 17v-3.234a2 2 0 01.572-1.4C2.118 10.79 3.928 10 6 10a7.14 7.14 0 014 1.182A7.134 7.134 0 0114 10c2.072 0 3.882.789 5.428 2.366a2 2 0 01.572 1.4V17H0zm14-5c-.642 0-1.41.235-2.306.705.199.316.306.683.306 1.061V15h6v-.71a1 1 0 00-.442-.83C16.11 12.487 14.924 12 14 12zm-8 0c-.924 0-2.11.487-3.558 1.46a1 1 0 00-.442.83V15h8v-.71a1 1 0 00-.442-.83C8.11 12.487 6.924 12 6 12zm0-3c1.654 0 3-1.346 3-3S7.654 3 6 3 3 4.346 3 6s1.346 3 3 3zm0-4.021c.55 0 1 .46 1 1.021 0 .562-.45 1.021-1 1.021S5 6.561 5 6c0-.562.45-1.021 1-1.021zM14 9c1.654 0 3-1.346 3-3s-1.346-3-3-3-3 1.346-3 3 1.346 3 3 3zm0-4.021c.55 0 1 .46 1 1.021 0 .562-.45 1.021-1 1.021S13 6.561 13 6c0-.562.45-1.021 1-1.021z"/>
</svg>
