<svg id="Julkinen_puoli_Väriheader_Lukio" data-name="Julkinen puoli/Väriheader/Lukio" xmlns="http://www.w3.org/2000/svg" width="1440" height="238" viewBox="0 0 1440 238">
  <rect width="100%" height="50%" fill="#FFFFFF"/>
  <g id="Group" transform="translate(0 0)">
    <path id="Combined_Shape" data-name="Combined Shape" d="M1337.717-139.437q-.24,1.3-.465,2.55c-58.417-35.2-123.6-73.744-169.013-84.254C1117-233,1092.012-238,983-238h-8l.057.011H0V0H1440V-238C1383.19-233.762,1346.442-186.808,1337.717-139.437Z" transform="translate(0 238)" fill="#7aae7a"/>
    <g id="aallto_varjot_copy_3" data-name="aallto varjot copy 3" transform="translate(975 0)">
      <path id="Combined_Shape-2" data-name="Combined Shape" d="M-2.94,115.846l-.015.007-.07.031ZM12.623,86.395C21.255,40,16.16,44.627,24.226,0c40.426,24.362,77.615,47.127,102.749,57.887l0,0h0l0,0L-2.94,115.846C-1.91,115.367,8.214,110.1,12.623,86.395Z" transform="translate(338.025 101.116)" fill="rgba(255,255,255,0.25)"/>
      <path id="Combined_Shape-3" data-name="Combined Shape" d="M322.462,219a30.866,30.866,0,0,1-10.324-1.58,45.91,45.91,0,0,1-8.006-3.887c-12.781-7.309-27.926-18.069-47.661-33.861-17.539-14.034-36.312-30.126-56.188-47.161C166.4,103.468,131.362,73.437,97.126,48.971,61.684,23.644,23.56,4.422,0,0H8C61.26,0,95.438,1.191,122.285,3.982c12.262,1.275,23.613,2.94,35.724,5.239,11.493,2.182,22.755,4.75,35.23,7.637,20.411,4.724,46.458,15.475,79.629,32.867,29.2,15.309,60.165,33.78,89.383,51.386a362.19,362.19,0,0,0-5.534,41.848c-.814,10.242-1.656,20.831-6.068,44.551-3.668,19.716-11.274,26.68-14.374,28.758-.438.247-.867.493-1.275.73C334.959,217.02,330.835,219,322.462,219Z" transform="translate(0)" fill="#fff" opacity="0.479"/>
      <path id="Combined_Shape-4" data-name="Combined Shape" d="M102.748,159c-10.677-4.573-24.02-11.484-41.99-21.751C44.747,128.1,27.116,117.469,8.451,106.209q-4.2-2.534-8.452-5.1c.168-.929.32-1.763.465-2.55A130.931,130.931,0,0,1,12.139,63.774,125.389,125.389,0,0,1,33.575,33.107a109.272,109.272,0,0,1,30.452-22.58A104.153,104.153,0,0,1,102.749,0V159Z" transform="translate(362.252)" fill="#fff" opacity="0.487"/>
    </g>
  </g>
</svg>
