<svg width="468" height="219" viewBox="0 0 468 219" fill="none" xmlns="http://www.w3.org/2000/svg">
<path opacity="0.39" fill-rule="evenodd" clip-rule="evenodd" d="M351.187 187.513C359.818 141.116 354.724 145.746 362.79 101.115C403.217 125.477 440.405 148.242 465.539 159.002C465.539 159.002 465.538 159.003 465.535 159.004L465.534 159.004C465.533 159.005 465.531 159.006 465.529 159.006L335.624 216.965C336.654 216.485 346.778 211.217 351.187 187.513ZM335.623 216.964C335.618 216.966 335.613 216.969 335.609 216.971C335.585 216.982 335.563 216.991 335.539 217.002L335.623 216.964Z" fill="#A3D7EF"/>
<path opacity="0.55" fill-rule="evenodd" clip-rule="evenodd" d="M323.004 219C319.09 219 315.81 218.498 312.68 217.42C309.862 216.449 307.487 215.142 304.674 213.533C291.893 206.224 276.748 195.465 257.013 179.673C239.474 165.638 220.7 149.547 200.824 132.511C166.94 103.468 131.903 73.4368 97.6661 48.9709C62.224 23.6442 24.0994 4.42201 0.539062 0H8.53927C61.7991 0 95.978 1.19105 122.825 3.9825C135.087 5.25746 146.438 6.92233 158.549 9.22187C170.043 11.4042 181.304 13.9716 193.78 16.8588C214.191 21.5831 240.238 32.3341 273.409 49.7262C302.606 65.0347 333.575 83.5057 362.793 101.113C358.851 122.928 358.041 133.112 357.259 142.961C356.444 153.203 355.603 163.792 351.19 187.512C347.522 207.227 339.916 214.191 336.816 216.27C336.378 216.518 335.949 216.763 335.542 217C335.501 217.02 331.377 219 323.004 219Z" fill="#A3D7EF"/>
<path opacity="0.12" fill-rule="evenodd" clip-rule="evenodd" d="M465.539 159.005C454.862 154.432 441.52 147.52 423.549 137.254C407.538 128.106 389.907 117.471 371.242 106.211C368.442 104.522 365.624 102.822 362.79 101.114C362.958 100.185 363.11 99.3511 363.255 98.5642C365.466 86.5601 369.394 74.8553 374.929 63.7748C380.648 52.328 387.86 42.0101 396.366 33.1075C405.375 23.6773 415.621 16.0802 426.817 10.5274C438.847 4.56154 451.875 1.01963 465.539 1.00002e-05V159.003L465.539 159.005Z" fill="#A3D7EF"/>
<path fill-rule="evenodd" clip-rule="evenodd" d="M465.542 0.0178423L10.7266 0.0175781C59.0075 0.174257 91.0991 1.38602 116.69 3.98224C129.256 5.25711 140.89 6.92187 153.302 9.22127C165.081 11.4034 176.622 13.9707 189.407 16.8577C210.326 21.5817 237.019 32.332 271.014 49.7229C300.93 65.0271 332.66 83.4922 362.598 101.095L362.613 101.012C365.494 102.708 368.359 104.395 371.205 106.071L371.271 106.111C399.042 122.469 424.993 137.756 446.299 148.715C439.942 145.443 432.858 141.625 424.886 137.178C408.477 128.023 390.409 117.38 371.28 106.111C368.41 104.421 365.522 102.72 362.618 101.011C362.79 100.081 362.946 99.2463 363.095 98.4587C365.361 86.4455 369.387 74.7318 375.059 63.643C380.919 52.1875 388.311 41.8617 397.028 32.9524C406.261 23.515 416.761 15.9122 428.236 10.3552C439.865 4.72352 452.404 1.2502 465.542 0.0178423ZM464.136 157.317C465.159 157.769 466.164 158.204 467.152 158.622V158.622C466.169 158.206 465.164 157.771 464.136 157.317Z" fill="white"/>
</svg>
