<svg width="1440" height="238" viewBox="0 0 1440 238" fill="none" xmlns="http://www.w3.org/2000/svg">
<g clip-path="url(#clip0_5568_18189)">
<path d="M1440 0H0V119H1440V0Z" fill="white"/>
<path d="M1337.72 98.563C1337.56 99.4297 1337.41 100.28 1337.26 101.113C1278.84 65.913 1213.65 27.369 1168.24 16.859C1117 4.99999 1092.01 0 983 0H975L975.057 0.0110016H0V238H1440V0C1383.19 4.238 1346.44 51.192 1337.72 98.563Z" fill="#006699"/>
<path d="M1310.09 216.962L1310.07 216.969L1310 217L1310.09 216.962ZM1325.65 187.511C1334.28 141.116 1329.18 145.743 1337.25 101.116C1377.68 125.478 1414.87 148.243 1440 159.003L1310.09 216.962C1311.12 216.483 1321.24 211.216 1325.65 187.511Z" fill="white" fill-opacity="0.25"/>
<path opacity="0.479" d="M1297.46 219C1293.96 219.064 1290.46 218.529 1287.14 217.42C1284.35 216.387 1281.67 215.085 1279.13 213.533C1266.35 206.224 1251.21 195.464 1231.47 179.672C1213.93 165.638 1195.16 149.546 1175.28 132.511C1141.4 103.468 1106.36 73.437 1072.13 48.971C1036.68 23.644 998.56 4.422 975 0H983C1036.26 0 1070.44 1.191 1097.29 3.982C1109.55 5.257 1120.9 6.922 1133.01 9.221C1144.5 11.403 1155.76 13.971 1168.24 16.858C1188.65 21.582 1214.7 32.333 1247.87 49.725C1277.07 65.034 1308.03 83.505 1337.25 101.111C1334.59 114.941 1332.75 128.914 1331.72 142.959C1330.9 153.201 1330.06 163.79 1325.65 187.51C1321.98 207.226 1314.38 214.19 1311.27 216.268C1310.84 216.515 1310.41 216.761 1310 216.998C1309.96 217.02 1305.83 219 1297.46 219Z" fill="white"/>
<path opacity="0.487" d="M1440 159C1429.32 154.427 1415.98 147.516 1398.01 137.249C1382 128.1 1364.37 117.469 1345.7 106.209L1337.25 101.109C1337.42 100.18 1337.57 99.346 1337.72 98.559C1339.96 86.4735 1343.89 74.7636 1349.39 63.774C1354.96 52.5371 1362.19 42.1997 1370.83 33.107C1379.59 23.8636 1389.89 16.2219 1401.28 10.527C1413.38 4.54124 1426.54 0.965893 1440 0L1440 159Z" fill="white"/>
</g>
<defs>
<clipPath id="clip0_5568_18189">
<rect width="1440" height="238" fill="white"/>
</clipPath>
</defs>
</svg>
