<svg width="1440" height="238" xmlns="http://www.w3.org/2000/svg">
  <rect width="100%" height="50%" fill="#FFFFFF"/>
  <g fill-rule="nonzero" fill="none">
    <path d="M1440 238v-79h-.001.001V0c-56.81 4.239-93.558 51.192-102.284 98.563-.16.868-.315 1.72-.465 2.553-58.414-35.205-123.603-73.747-169.012-84.257C1117 5 1092.012 0 983 0h-8l.062.012H0V238h1440z" fill="#FC3"/>
    <g fill="#FFF">
      <path d="M1310.755 216.662l-.09.044-.048.02-.617.274.755-.338zm127.38-58.473L1440 159l-129.245 57.662.071-.033c6.81-3.34 11.71-12.837 14.704-28.488l.118-.63c8.631-46.396 3.538-41.768 11.603-86.395 39.441 23.765 75.793 46.01 100.884 57.073z" fill-opacity=".252"/>
      <path d="M983 0c109.012 0 134 5 185.24 16.86 45.408 10.509 110.597 49.051 169.011 84.253-8.065 44.63-2.972 40.002-11.603 86.398-2.654 14.27-6.862 23.528-12.623 27.776A156.208 156.208 0 001310 217c-2.713 1.333-6.892 2-12.538 2-8.468 0-12.952-2.392-18.33-5.467-51.774-29.609-132.415-111.258-207.006-164.562C1033.765 21.558 996.348 4.007 975 0h8z" opacity=".479"/>
      <path d="M1440 0v159l-1.865-.81c-25.09-11.065-61.443-33.31-100.883-57.077l.207-1.145.257-1.405C1346.442 51.193 1383.19 4.239 1440 0z" opacity=".487"/>
    </g>
  </g>
</svg>
