<svg width="418" height="220" viewBox="0 0 418 220" fill="none" xmlns="http://www.w3.org/2000/svg">
<path opacity="0.79" fill-rule="evenodd" clip-rule="evenodd" d="M315.776 188.135C323.423 141.77 318.909 146.397 326.056 101.797C361.872 126.142 394.819 148.891 417.087 159.644C417.087 159.644 417.086 159.645 417.083 159.646L417.082 159.646C417.081 159.647 417.08 159.648 417.078 159.648L301.988 217.567C302.9 217.088 311.87 211.823 315.776 188.135ZM301.988 217.567C301.984 217.569 301.979 217.571 301.975 217.573C301.954 217.584 301.935 217.594 301.914 217.605L301.988 217.567Z" fill="url(#paint0_linear_4151_16952)"/>
<path opacity="0.77" fill-rule="evenodd" clip-rule="evenodd" d="M290.794 219.601C287.327 219.601 284.42 219.1 281.648 218.022C279.151 217.053 277.047 215.746 274.555 214.139C263.231 206.834 249.814 196.082 232.329 180.301C216.79 166.276 200.158 150.196 182.549 133.172C152.528 104.149 121.487 74.1386 91.1548 49.6895C59.7547 24.3803 26.6937 5.02736 5.82031 0.608398H12.1924C59.3645 0.608398 89.6592 1.94264 113.444 4.73217C124.308 6.00624 134.365 7.66996 145.095 9.96792C155.277 12.1487 165.255 14.7144 176.307 17.5996C194.391 22.3206 217.468 33.0642 246.855 50.4443C272.723 65.7422 300.16 84.2005 326.046 101.795C322.553 123.596 321.836 133.773 321.142 143.615C320.421 153.849 319.675 164.432 315.766 188.135C312.517 207.837 305.778 214.796 303.032 216.873C302.643 217.121 302.263 217.366 301.902 217.603C301.866 217.623 298.212 219.601 290.794 219.601Z" fill="url(#paint1_linear_4151_16952)"/>
<path opacity="0.35" fill-rule="evenodd" clip-rule="evenodd" d="M417.078 159.648C407.619 155.078 395.798 148.171 379.877 137.912C365.691 128.771 350.072 118.143 333.535 106.891C331.054 105.203 328.558 103.504 326.047 101.797C326.196 100.869 326.331 100.036 326.459 99.2491C328.418 87.2533 331.898 75.5566 336.802 64.4838C341.868 53.0449 348.258 42.734 355.794 33.8376C363.776 24.4139 372.853 16.8221 382.773 11.2731C393.43 5.31132 404.972 1.77184 417.078 0.75293V159.646L417.078 159.648Z" fill="url(#paint2_linear_4151_16952)"/>
<path fill-rule="evenodd" clip-rule="evenodd" d="M325.911 101.555C325.91 101.554 325.908 101.553 325.907 101.552C326.059 100.622 326.198 99.7886 326.329 99.0016C328.337 86.9966 331.903 75.291 336.929 64.2099C342.121 52.7623 348.669 42.4436 356.392 33.5404C364.573 24.1095 373.875 16.512 384.041 10.9588C394.346 5.32965 405.458 1.85841 417.102 0.627675V0.600855L0.367188 0.600586L0.415089 0.610354H4.25604C52.6138 0.610354 83.6468 1.80051 108.023 4.58986C119.156 5.86385 129.463 7.52746 140.459 9.82527C150.895 12.0059 161.12 14.5715 172.447 17.4565C190.98 22.1772 214.629 32.9201 244.747 50.299C271.254 65.5947 299.37 84.0499 325.897 101.642L325.911 101.555Z" fill="white"/>
<defs>
<linearGradient id="paint0_linear_4151_16952" x1="367.411" y1="205.885" x2="408.778" y2="123.951" gradientUnits="userSpaceOnUse">
<stop stop-color="#E3158F"/>
<stop offset="0.39749" stop-color="#2874BA"/>
<stop offset="1" stop-color="#64BC46"/>
</linearGradient>
<linearGradient id="paint1_linear_4151_16952" x1="187.617" y1="197.451" x2="247.164" y2="23.5367" gradientUnits="userSpaceOnUse">
<stop stop-color="#E3158F"/>
<stop offset="0.39749" stop-color="#2874BA"/>
<stop offset="1" stop-color="#64BC46"/>
</linearGradient>
<linearGradient id="paint2_linear_4151_16952" x1="377.816" y1="143.565" x2="447.742" y2="63.7792" gradientUnits="userSpaceOnUse">
<stop stop-color="#64BC46"/>
<stop offset="0.39749" stop-color="#2874BA"/>
<stop offset="1" stop-color="#E3158F"/>
</linearGradient>
</defs>
</svg>
