<svg width="466" height="220" viewBox="0 0 466 220" fill="none" xmlns="http://www.w3.org/2000/svg">
<path opacity="0.79" fill-rule="evenodd" clip-rule="evenodd" d="M352.64 187.835C361.172 141.469 356.136 146.096 364.11 101.496C404.074 125.841 440.837 148.59 465.684 159.343C465.684 159.343 465.683 159.344 465.68 159.345L465.679 159.345C465.677 159.346 465.676 159.347 465.674 159.348L337.254 217.266C338.273 216.787 348.281 211.522 352.64 187.835ZM337.254 217.266C337.249 217.268 337.245 217.271 337.24 217.273C337.217 217.283 337.195 217.293 337.172 217.304L337.254 217.266Z" fill="url(#paint0_linear_4100_21075)"/>
<path opacity="0.77" fill-rule="evenodd" clip-rule="evenodd" d="M324.76 219.301C320.891 219.301 317.648 218.799 314.555 217.722C311.769 216.752 309.421 215.445 306.64 213.838C294.005 206.534 279.034 195.781 259.524 180C242.185 165.976 223.626 149.896 203.978 132.871C170.481 103.848 135.844 73.8378 101.999 49.3888C66.9622 24.0795 30.0722 4.72657 6.78125 0.307617H13.8913C66.5269 0.307617 100.33 1.64186 126.87 4.43139C138.992 5.70546 150.214 7.36918 162.186 9.66714C173.548 11.848 184.681 14.4136 197.014 17.2988C217.192 22.0199 242.941 32.7634 275.733 50.1435C304.596 65.4415 335.211 83.8997 364.095 101.495C360.198 123.295 359.397 133.472 358.624 143.314C357.819 153.549 356.987 164.131 352.625 187.834C348.999 207.536 341.48 214.495 338.415 216.573C337.982 216.82 337.558 217.065 337.155 217.302C337.115 217.322 333.038 219.301 324.76 219.301Z" fill="url(#paint1_linear_4100_21075)"/>
<path opacity="0.35" fill-rule="evenodd" clip-rule="evenodd" d="M465.668 159.347C455.113 154.777 441.923 147.871 424.158 137.611C408.33 128.47 390.901 117.842 372.449 106.59C369.681 104.902 366.895 103.203 364.094 101.497C364.26 100.568 364.41 99.7348 364.554 98.9483C366.74 86.9525 370.623 75.2558 376.095 64.183C381.747 52.7441 388.877 42.4332 397.286 33.5368C406.192 24.1131 416.321 16.5213 427.389 10.9723C439.281 5.01054 452.16 1.47106 465.668 0.452148V159.345L465.668 159.347Z" fill="url(#paint2_linear_4100_21075)"/>
<path fill-rule="evenodd" clip-rule="evenodd" d="M363.954 101.255C363.951 101.254 363.949 101.252 363.946 101.251C364.117 100.322 364.271 99.4878 364.418 98.7008C366.658 86.6959 370.637 74.9902 376.245 63.9091C382.039 52.4615 389.345 42.1428 397.963 33.2396C407.091 23.8088 417.47 16.2112 428.814 10.658C440.313 5.02886 452.712 1.55762 465.703 0.32689V0.300073L0.703125 0.299805L0.756575 0.309573H5.04238C59.0009 0.309573 93.6281 1.49973 120.827 4.28907C133.25 5.56306 144.75 7.22668 157.02 9.52449C168.664 11.7052 180.074 14.2707 192.713 17.1557C213.392 21.8764 239.781 32.6193 273.387 49.9982C302.965 65.2943 334.338 83.7502 363.938 101.343L363.954 101.255Z" fill="white"/>
<defs>
<linearGradient id="paint0_linear_4100_21075" x1="410.255" y1="205.584" x2="448.872" y2="120.238" gradientUnits="userSpaceOnUse">
<stop stop-color="#E3158F"/>
<stop offset="0.39749" stop-color="#2874BA"/>
<stop offset="1" stop-color="#64BC46"/>
</linearGradient>
<linearGradient id="paint1_linear_4100_21075" x1="209.633" y1="197.151" x2="264.125" y2="19.5684" gradientUnits="userSpaceOnUse">
<stop stop-color="#E3158F"/>
<stop offset="0.39749" stop-color="#2874BA"/>
<stop offset="1" stop-color="#64BC46"/>
</linearGradient>
<linearGradient id="paint2_linear_4100_21075" x1="421.858" y1="143.265" x2="490.386" y2="56.0185" gradientUnits="userSpaceOnUse">
<stop stop-color="#64BC46"/>
<stop offset="0.39749" stop-color="#2874BA"/>
<stop offset="1" stop-color="#E3158F"/>
</linearGradient>
</defs>
</svg>
