<svg width="1901" height="359" viewBox="0 0 1901 359" fill="none" xmlns="http://www.w3.org/2000/svg">
<g filter="url(#filter0_i_4051_18601)">
<rect x="0.914062" y="0.667969" width="1899.91" height="358" fill="white"/>
</g>
<mask id="mask0_4051_18601" style="mask-type:luminance" maskUnits="userSpaceOnUse" x="475" y="0" width="1426" height="359">
<rect opacity="0.9" x="475.938" y="0.667969" width="1424.97" height="358" fill="white"/>
</mask>
<g mask="url(#mask0_4051_18601)">
<path opacity="0.9" d="M970.916 560.706C970.916 560.706 955.328 464.984 990.372 378.091C1025.42 291.197 1097.02 254.254 1162.62 168.773C1228.23 83.2923 1241.42 9.85282 1252.1 -54.4906C1262.78 -118.834 1350.11 -216.502 1497.49 -100.154C1644.87 16.1935 1626.42 163.07 1689.76 275.931C1753.1 388.791 1881.21 469.308 2047.06 428.428" stroke="#B2B2B2" stroke-opacity="0.5" stroke-width="2" stroke-dasharray="6"/>
<g opacity="0.9">
<path fill-rule="evenodd" clip-rule="evenodd" d="M1546.36 175.366V172.366L1561.6 164.865L1576.84 172.366V175.366H1546.36ZM1550.94 188.867V178.366H1553.99V188.867H1550.94ZM1560.08 188.867V178.366H1563.13V188.867H1560.08ZM1569.23 188.867V178.366H1572.27V188.867H1569.23ZM1546.36 194.866V191.866H1576.84V194.866H1546.36Z" fill="#4C4C4C" fill-opacity="0.5"/>
</g>
<path opacity="0.9" fill-rule="evenodd" clip-rule="evenodd" d="M1360.61 60.7568L1342.41 70.7568L1349.03 74.3902V84.3902L1360.61 90.7568L1372.19 84.3902V74.3902L1375.5 72.5735V84.0902H1378.81V70.7568L1360.61 60.7568ZM1371.89 70.7566L1360.61 76.9566L1349.33 70.7566L1360.61 64.5566L1371.89 70.7566ZM1360.62 86.957L1368.89 82.407V76.207L1360.62 80.757L1352.34 76.207V82.407L1360.62 86.957Z" fill="#4C4C4C" fill-opacity="0.5"/>
<path opacity="0.9" fill-rule="evenodd" clip-rule="evenodd" d="M1632.87 293.945H1626.27V290.612L1622.97 287.278H1616.37L1613.07 290.612V293.945H1606.46C1604.65 293.945 1603.16 295.445 1603.16 297.278V305.612C1603.16 306.862 1603.82 307.912 1604.81 308.495V313.945C1604.81 315.795 1606.28 317.278 1608.12 317.278H1631.22C1633.05 317.278 1634.52 315.795 1634.52 313.945V308.478C1635.5 307.895 1636.17 306.828 1636.17 305.612V297.278C1636.17 295.445 1634.69 293.945 1632.87 293.945ZM1616.37 290.612H1622.98V293.946H1616.37V290.612ZM1632.88 297.278H1606.47V305.612H1614.72V300.612H1624.62V305.612H1632.88V297.278ZM1621.32 307.278H1618.02V303.944H1621.32V307.278ZM1608.12 313.944H1631.22V308.944H1624.62V310.611H1614.72V308.944H1608.12V313.944Z" fill="#4C4C4C" fill-opacity="0.5"/>
<path opacity="0.9" fill-rule="evenodd" clip-rule="evenodd" d="M1276.8 285.236C1276.8 288.313 1274.34 290.805 1271.31 290.805C1268.28 290.805 1265.83 288.313 1265.83 285.236C1265.83 282.16 1268.28 279.668 1271.31 279.668C1274.34 279.668 1276.8 282.16 1276.8 285.236ZM1274.05 285.236C1274.05 283.705 1272.81 282.452 1271.31 282.452C1269.8 282.452 1268.56 283.705 1268.56 285.236C1268.56 286.768 1269.8 288.021 1271.31 288.021C1272.81 288.021 1274.05 286.768 1274.05 285.236ZM1271.31 294.355C1268.08 291.292 1263.74 289.413 1258.97 289.413V304.726C1263.74 304.726 1268.08 306.606 1271.31 309.668C1274.55 306.62 1278.88 304.726 1283.65 304.726V289.413C1278.88 289.413 1274.55 291.292 1271.31 294.355ZM1271.32 306.048C1274.16 303.932 1277.45 302.596 1280.92 302.123V292.448C1278.04 292.977 1275.37 294.327 1273.18 296.387L1271.32 298.155L1269.45 296.373C1267.27 294.313 1264.6 292.963 1261.72 292.434V302.109C1265.19 302.582 1268.49 303.932 1271.32 306.048Z" fill="#4C4C4C" fill-opacity="0.5"/>
<path opacity="0.9" d="M1295.62 301.542C1295.62 301.542 1384.79 327.942 1461.26 299.554C1537.74 271.166 1556.22 212.234 1556.22 212.234" stroke="#4C4C4C" stroke-opacity="0.2" stroke-width="2" stroke-linecap="round" stroke-linejoin="round"/>
<path opacity="0.9" d="M1560.65 148.355C1560.65 148.355 1541.83 69.4457 1487.12 46.0642C1432.41 22.6827 1384.8 51.0891 1384.8 51.0891" stroke="#4C4C4C" stroke-opacity="0.2" stroke-width="2" stroke-linecap="round" stroke-linejoin="round"/>
<path opacity="0.9" d="M1338.65 100.037C1338.65 100.037 1294.78 169.857 1361.71 253.25C1423.86 319.832 1589.28 304.479 1589.28 304.479" stroke="#4C4C4C" stroke-opacity="0.2" stroke-width="2" stroke-linecap="round" stroke-linejoin="round"/>
<path fill-rule="evenodd" clip-rule="evenodd" d="M1718.9 326.886C1718.03 353.453 1728.78 378.487 1747.65 393.853C1784.22 428.171 1832.56 440.087 1875.02 447.217C1881.97 423.696 1884.89 405.176 1885.75 378.895C1887.03 340.028 1880.7 309.689 1866.92 288.72C1853.43 265.39 1827.66 250.147 1799.68 248.938C1773.3 247.799 1749.98 258.891 1735.69 279.371C1725.45 292.273 1719.49 309.147 1718.9 326.886ZM2039.56 491.404C2039.29 499.484 2033.96 508.221 2024.29 509.287C2014.04 508.328 1994.26 505.634 1975.14 503.03C1955.99 500.422 1936.2 497.726 1925.93 496.766L1862.01 488.478C1830.59 483.239 1803.84 476.065 1780.23 466.546C1752.08 455.196 1728.18 440.201 1709.18 421.978C1680.41 396.149 1663.35 355.487 1664.65 315.861C1665.2 299.372 1668.82 283.935 1675.43 269.977C1687.51 242.406 1710.09 219.644 1739.01 205.886C1768.07 192.064 1799.67 189.214 1827.99 197.861C1847.33 202.699 1866.52 213.047 1883.48 227.789C1900.04 242.18 1913.37 260.112 1921.03 278.28C1933.88 306.644 1939.46 340.671 1938.09 382.306C1937.24 408.065 1933.95 433.459 1930.93 455.24C1938.83 456.926 1952.44 459.293 1966.85 461.799C1990.16 465.85 2016.57 470.442 2029.1 473.881C2035.91 477.111 2039.82 483.661 2039.56 491.404Z" fill="url(#paint0_linear_4051_18601)"/>
</g>
<mask id="mask1_4051_18601" style="mask-type:luminance" maskUnits="userSpaceOnUse" x="0" y="0" width="270" height="168">
<rect opacity="0.9" x="0.960938" y="0.667969" width="268.375" height="167.307" fill="white"/>
</mask>
<g mask="url(#mask1_4051_18601)">
<path fill-rule="evenodd" clip-rule="evenodd" d="M193.407 11.3002C180.024 -1.80201 161.909 -7.98437 144.949 -5.23774C109.731 -2.08209 80.5499 17.9979 56.6498 37.2242C65.5589 52.1159 73.7923 62.4759 87.0304 75.4378C106.608 94.6067 125.379 105.663 142.822 108.299C161.358 112.207 181.531 105.733 195.469 91.4024C208.608 77.8934 213.942 60.1931 210.102 42.8403C208.272 31.2493 202.343 20.0483 193.407 11.3002ZM-44.5655 103.853C-48.6353 99.868 -50.6373 92.8724 -46.5895 87.2129C-41.2141 82.2073 -30.4102 72.956 -19.962 64.0094C-9.49969 55.0506 1.31501 45.7902 6.69736 40.7778L41.4056 10.6723C59.0751 -3.57601 75.526 -14.4136 91.6983 -22.4601C110.982 -32.0545 130.14 -37.6552 148.641 -39.1065C175.743 -42.1478 204.978 -31.8963 224.938 -12.3528C233.244 -4.22063 239.537 5.05377 243.643 15.2129C252.219 34.7589 253.301 57.6119 246.69 79.5621C240.047 101.614 226.495 119.803 208.531 130.779C196.821 138.778 182.32 144.075 166.595 146.098C151.244 148.074 135.588 146.648 122.511 142.083C101.665 135.44 81.3365 122.228 60.3643 101.695C47.3889 88.9905 35.7646 75.1589 25.8876 63.1915C21.2572 66.5942 13.5527 72.7198 5.39581 79.2051C-7.79401 89.692 -22.7419 101.577 -30.4873 106.614C-35.4029 108.704 -40.6653 107.672 -44.5655 103.853Z" fill="url(#paint1_linear_4051_18601)"/>
</g>
<defs>
<filter id="filter0_i_4051_18601" x="0.914062" y="0.667969" width="1909.91" height="368" filterUnits="userSpaceOnUse" color-interpolation-filters="sRGB">
<feFlood flood-opacity="0" result="BackgroundImageFix"/>
<feBlend mode="normal" in="SourceGraphic" in2="BackgroundImageFix" result="shape"/>
<feColorMatrix in="SourceAlpha" type="matrix" values="0 0 0 0 0 0 0 0 0 0 0 0 0 0 0 0 0 0 127 0" result="hardAlpha"/>
<feOffset dx="10" dy="10"/>
<feGaussianBlur stdDeviation="25"/>
<feComposite in2="hardAlpha" operator="arithmetic" k2="-1" k3="1"/>
<feColorMatrix type="matrix" values="0 0 0 0 0 0 0 0 0 0.4 0 0 0 0 0.6 0 0 0 0.050071 0"/>
<feBlend mode="normal" in2="shape" result="effect1_innerShadow_4051_18601"/>
</filter>
<linearGradient id="paint0_linear_4051_18601" x1="2006.25" y1="333.16" x2="1767.16" y2="173.861" gradientUnits="userSpaceOnUse">
<stop stop-color="#E3158F"/>
<stop offset="0.39749" stop-color="#2874BA"/>
<stop offset="1" stop-color="#64BC46"/>
</linearGradient>
<linearGradient id="paint1_linear_4051_18601" x1="53.4693" y1="161.377" x2="250.782" y2="113.275" gradientUnits="userSpaceOnUse">
<stop stop-color="#64BC46"/>
<stop offset="0.39749" stop-color="#2874BA"/>
<stop offset="1" stop-color="#E3158F"/>
</linearGradient>
</defs>
</svg>
