<svg width="157" height="43" viewBox="0 0 157 43" fill="none" xmlns="http://www.w3.org/2000/svg">
<path d="M38.7207 6.625C39.7298 6.625 40.599 6.82031 41.3281 7.21094C42.0573 7.59505 42.6204 8.15495 43.0176 8.89062C43.4147 9.6263 43.6133 10.5247 43.6133 11.5859V13.0312H36.5723C36.6048 13.8711 36.8555 14.5319 37.3242 15.0137C37.7995 15.4889 38.457 15.7266 39.2969 15.7266C39.9935 15.7266 40.6315 15.6549 41.2109 15.5117C41.7904 15.3685 42.3861 15.1536 42.998 14.8672V17.1719C42.4577 17.4388 41.8913 17.6341 41.2988 17.7578C40.7129 17.8815 40 17.9434 39.1602 17.9434C38.0664 17.9434 37.0964 17.7415 36.25 17.3379C35.4102 16.9342 34.7493 16.319 34.2676 15.4922C33.7923 14.6654 33.5547 13.6237 33.5547 12.3672C33.5547 11.0911 33.7695 10.0299 34.1992 9.18359C34.6354 8.33073 35.2409 7.69271 36.0156 7.26953C36.7904 6.83984 37.6921 6.625 38.7207 6.625ZM38.7402 8.74414C38.1608 8.74414 37.679 8.92969 37.2949 9.30078C36.9173 9.67188 36.6992 10.2546 36.6406 11.0488H40.8203C40.8138 10.6061 40.7324 10.2122 40.5762 9.86719C40.4264 9.52214 40.1986 9.2487 39.8926 9.04688C39.5931 8.84505 39.209 8.74414 38.7402 8.74414ZM50.8301 3.4707C52.6725 3.4707 54.0169 3.86784 54.8633 4.66211C55.7096 5.44987 56.1328 6.53711 56.1328 7.92383C56.1328 8.54883 56.0384 9.14779 55.8496 9.7207C55.6608 10.2871 55.3516 10.7917 54.9219 11.2344C54.4987 11.6771 53.9323 12.0286 53.2227 12.2891C52.513 12.543 51.6374 12.6699 50.5957 12.6699H49.2969V17.748H46.2695V3.4707H50.8301ZM50.6738 5.95117H49.2969V10.1895H50.293C50.8594 10.1895 51.3509 10.1146 51.7676 9.96484C52.1842 9.8151 52.5065 9.58073 52.7344 9.26172C52.9622 8.94271 53.0762 8.53255 53.0762 8.03125C53.0762 7.32812 52.8809 6.80729 52.4902 6.46875C52.0996 6.1237 51.4941 5.95117 50.6738 5.95117ZM67.0508 17.748H58.8281V3.4707H67.0508V5.95117H61.8555V9.08594H66.6895V11.5664H61.8555V15.248H67.0508V17.748ZM74.1992 3.4707C75.4948 3.4707 76.5625 3.62695 77.4023 3.93945C78.2487 4.25195 78.877 4.72396 79.2871 5.35547C79.6973 5.98698 79.9023 6.78451 79.9023 7.74805C79.9023 8.39909 79.7786 8.96875 79.5312 9.45703C79.2839 9.94531 78.9583 10.3587 78.5547 10.6973C78.151 11.0358 77.7148 11.3125 77.2461 11.5273L81.4453 17.748H78.0859L74.6777 12.2695H73.0664V17.748H70.0391V3.4707H74.1992ZM73.9844 5.95117H73.0664V9.80859H74.043C75.0456 9.80859 75.7617 9.64258 76.1914 9.31055C76.6276 8.97201 76.8457 8.47721 76.8457 7.82617C76.8457 7.14909 76.6113 6.66732 76.1426 6.38086C75.6803 6.0944 74.9609 5.95117 73.9844 5.95117ZM94.8633 3.4707V12.709C94.8633 13.6921 94.6452 14.5807 94.209 15.375C93.7793 16.1628 93.125 16.7878 92.2461 17.25C91.3737 17.7122 90.2734 17.9434 88.9453 17.9434C87.0573 17.9434 85.6185 17.4616 84.6289 16.498C83.6393 15.5345 83.1445 14.2585 83.1445 12.6699V3.4707H86.1621V12.2109C86.1621 13.3893 86.403 14.2161 86.8848 14.6914C87.3665 15.1667 88.0794 15.4043 89.0234 15.4043C89.6875 15.4043 90.2246 15.2904 90.6348 15.0625C91.0514 14.8346 91.3574 14.4831 91.5527 14.0078C91.748 13.5326 91.8457 12.9271 91.8457 12.1914V3.4707H94.8633ZM106.787 13.7832C106.787 14.6296 106.582 15.3652 106.172 15.9902C105.762 16.6152 105.163 17.097 104.375 17.4355C103.594 17.7741 102.643 17.9434 101.523 17.9434C101.029 17.9434 100.544 17.9108 100.068 17.8457C99.5996 17.7806 99.1471 17.6862 98.7109 17.5625C98.2812 17.4323 97.8711 17.2728 97.4805 17.084V14.2715C98.1576 14.571 98.8607 14.8411 99.5898 15.082C100.319 15.3229 101.042 15.4434 101.758 15.4434C102.253 15.4434 102.65 15.3783 102.949 15.248C103.255 15.1178 103.477 14.9388 103.613 14.7109C103.75 14.4831 103.818 14.2227 103.818 13.9297C103.818 13.5716 103.698 13.2656 103.457 13.0117C103.216 12.7578 102.884 12.5202 102.461 12.2988C102.044 12.0775 101.572 11.8398 101.045 11.5859C100.713 11.4297 100.352 11.2409 99.9609 11.0195C99.5703 10.7917 99.1992 10.515 98.8477 10.1895C98.4961 9.86393 98.2064 9.47005 97.9785 9.00781C97.7572 8.53906 97.6465 7.97917 97.6465 7.32812C97.6465 6.47526 97.8418 5.74609 98.2324 5.14062C98.623 4.53516 99.1797 4.07292 99.9023 3.75391C100.632 3.42839 101.491 3.26562 102.48 3.26562C103.223 3.26562 103.929 3.35352 104.6 3.5293C105.277 3.69857 105.983 3.94596 106.719 4.27148L105.742 6.625C105.085 6.35807 104.495 6.15299 103.975 6.00977C103.454 5.86003 102.923 5.78516 102.383 5.78516C102.005 5.78516 101.683 5.84701 101.416 5.9707C101.149 6.08789 100.947 6.25716 100.811 6.47852C100.674 6.69336 100.605 6.94401 100.605 7.23047C100.605 7.56901 100.703 7.85547 100.898 8.08984C101.1 8.31771 101.4 8.53906 101.797 8.75391C102.201 8.96875 102.702 9.2194 103.301 9.50586C104.03 9.85091 104.652 10.2122 105.166 10.5898C105.687 10.9609 106.087 11.4004 106.367 11.9082C106.647 12.4095 106.787 13.0345 106.787 13.7832ZM114.883 17.748H111.855V5.99023H107.979V3.4707H118.76V5.99023H114.883V17.748ZM129.18 17.748H120.957V3.4707H129.18V5.95117H123.984V9.08594H128.818V11.5664H123.984V15.248H129.18V17.748ZM140.391 17.748H132.168V3.4707H140.391V5.95117H135.195V9.08594H140.029V11.5664H135.195V15.248H140.391V17.748ZM148.887 17.748H145.859V5.99023H141.982V3.4707H152.764V5.99023H148.887V17.748ZM37.8594 27.0098C38.6738 27.0098 39.3506 27.2002 39.8896 27.5811C40.4346 27.9619 40.8389 28.4834 41.1025 29.1455C41.3721 29.8076 41.5068 30.5664 41.5068 31.4219V32.0635H34.6074C34.6074 33.376 34.9092 34.3838 35.5127 35.0869C36.1221 35.79 36.9922 36.1416 38.123 36.1416C38.7148 36.1416 39.2275 36.0947 39.6611 36.001C40.1006 35.9014 40.5869 35.7344 41.1201 35.5V36.3174C40.6514 36.5283 40.1826 36.6807 39.7139 36.7744C39.2451 36.874 38.7061 36.9238 38.0967 36.9238C37.1299 36.9238 36.3184 36.7246 35.6621 36.3262C35.0117 35.9219 34.5195 35.3535 34.1855 34.6211C33.8574 33.8887 33.6934 33.0332 33.6934 32.0547C33.6934 31.0996 33.8516 30.2412 34.168 29.4795C34.4902 28.7178 34.959 28.1172 35.5742 27.6777C36.1953 27.2324 36.957 27.0098 37.8594 27.0098ZM37.8506 27.7744C36.9365 27.7744 36.1953 28.0791 35.627 28.6885C35.0645 29.292 34.7334 30.165 34.6338 31.3076H40.584C40.584 30.6104 40.4844 29.9951 40.2852 29.4619C40.0859 28.9287 39.7842 28.5156 39.3799 28.2227C38.9814 27.9238 38.4717 27.7744 37.8506 27.7744ZM49.4346 30.2617H54.1543V36.1592C53.5391 36.417 52.8828 36.6104 52.1855 36.7393C51.4883 36.8623 50.7471 36.9238 49.9619 36.9238C48.5967 36.9238 47.4453 36.666 46.5078 36.1504C45.5762 35.6289 44.8701 34.876 44.3896 33.8916C43.9092 32.9072 43.6689 31.7236 43.6689 30.3408C43.6689 29.0518 43.9297 27.9062 44.4512 26.9043C44.9785 25.9023 45.7314 25.1172 46.71 24.5488C47.6885 23.9805 48.8604 23.6963 50.2256 23.6963C50.9287 23.6963 51.5908 23.7607 52.2119 23.8896C52.8389 24.0186 53.4336 24.2119 53.9961 24.4697L53.6357 25.2783C53.0791 25.0205 52.5107 24.8271 51.9307 24.6982C51.3564 24.5693 50.7734 24.5049 50.1816 24.5049C49.0215 24.5049 48.0225 24.7539 47.1846 25.252C46.3525 25.7441 45.7139 26.4297 45.2686 27.3086C44.8291 28.1816 44.6094 29.1895 44.6094 30.332C44.6094 31.627 44.8232 32.7021 45.251 33.5576C45.6787 34.4131 46.3027 35.0547 47.123 35.4824C47.9492 35.9102 48.9512 36.124 50.1289 36.124C50.7734 36.124 51.3506 36.0771 51.8604 35.9834C52.376 35.8896 52.8418 35.7666 53.2578 35.6143V31.0879H49.4346V30.2617ZM60.5088 23.8984C61.5283 23.8984 62.3779 24.0098 63.0576 24.2324C63.7432 24.4551 64.2588 24.8213 64.6045 25.3311C64.9502 25.8408 65.123 26.5293 65.123 27.3965C65.123 28.0469 65.0029 28.6064 64.7627 29.0752C64.5283 29.5381 64.2031 29.9189 63.7871 30.2178C63.3711 30.5166 62.8906 30.7451 62.3457 30.9033L65.8701 36.748H64.7979L61.4844 31.1582H58.2939V36.748H57.3887V23.8984H60.5088ZM60.4209 24.6982H58.2939V30.3584H60.8516C61.9004 30.3584 62.7178 30.1064 63.3037 29.6025C63.8955 29.0986 64.1914 28.375 64.1914 27.4316C64.1914 26.3945 63.8809 25.6797 63.2598 25.2871C62.6387 24.8945 61.6924 24.6982 60.4209 24.6982ZM77.5596 23.8984V32.2129C77.5596 33.2148 77.3662 34.0674 76.9795 34.7705C76.5928 35.4678 76.0361 36.001 75.3096 36.3701C74.5889 36.7393 73.7246 36.9238 72.7168 36.9238C71.1875 36.9238 70.0127 36.5107 69.1924 35.6846C68.3721 34.8525 67.9619 33.6836 67.9619 32.1777V23.8984H68.8584V32.1777C68.8584 33.4668 69.1924 34.4482 69.8604 35.1221C70.5342 35.79 71.501 36.124 72.7607 36.124C73.5869 36.124 74.29 35.9775 74.8701 35.6846C75.4502 35.3857 75.8926 34.9521 76.1973 34.3838C76.502 33.8096 76.6543 33.1152 76.6543 32.3008V23.8984H77.5596ZM90.4004 36.748H89.4775L81.8838 25.3838H81.8398C81.8516 25.7002 81.8604 26.0225 81.8662 26.3506C81.8779 26.6729 81.8867 27.0068 81.8926 27.3525C81.9043 27.6924 81.9102 28.0439 81.9102 28.4072V36.748H81.0488V23.8984H81.9805L89.5479 35.2275H89.5918C89.5859 34.9697 89.5771 34.6709 89.5654 34.3311C89.5596 33.9912 89.5508 33.6426 89.5391 33.2852C89.5332 32.9277 89.5303 32.5908 89.5303 32.2744V23.8984H90.4004V36.748ZM103.812 30.2002C103.812 31.6357 103.558 32.8398 103.048 33.8125C102.544 34.7852 101.794 35.5176 100.798 36.0098C99.8076 36.502 98.5801 36.748 97.1152 36.748H94.0391V23.8984H97.5195C98.8906 23.8984 100.042 24.1387 100.974 24.6191C101.905 25.0996 102.611 25.8086 103.092 26.7461C103.572 27.6777 103.812 28.8291 103.812 30.2002ZM102.863 30.2354C102.863 29.0107 102.664 27.9883 102.266 27.168C101.867 26.3477 101.258 25.7324 100.438 25.3223C99.6172 24.9062 98.5771 24.6982 97.3174 24.6982H94.9443V35.9482H97.0713C99.0107 35.9482 100.461 35.4736 101.422 34.5244C102.383 33.5693 102.863 32.1396 102.863 30.2354ZM113.771 36.748H106.748V23.8984H113.771V24.7158H107.653V29.585H113.428V30.4023H107.653V35.9307H113.771V36.748ZM119.817 23.8984C120.837 23.8984 121.687 24.0098 122.366 24.2324C123.052 24.4551 123.567 24.8213 123.913 25.3311C124.259 25.8408 124.432 26.5293 124.432 27.3965C124.432 28.0469 124.312 28.6064 124.071 29.0752C123.837 29.5381 123.512 29.9189 123.096 30.2178C122.68 30.5166 122.199 30.7451 121.654 30.9033L125.179 36.748H124.106L120.793 31.1582H117.603V36.748H116.697V23.8984H119.817ZM119.729 24.6982H117.603V30.3584H120.16C121.209 30.3584 122.026 30.1064 122.612 29.6025C123.204 29.0986 123.5 28.375 123.5 27.4316C123.5 26.3945 123.189 25.6797 122.568 25.2871C121.947 24.8945 121.001 24.6982 119.729 24.6982Z" fill="black"/>
<path fill-rule="evenodd" clip-rule="evenodd" d="M13.4822 10.2656C11.5266 10.2657 9.71269 11.1275 8.62985 12.5708C6.1975 15.3779 5.44156 19.0064 5.0229 22.1855C6.76959 22.6456 8.13847 22.817 10.073 22.817C12.9338 22.817 15.1487 22.2708 16.6562 21.1937C18.338 20.1316 19.3947 18.1756 19.414 16.0891C19.4322 14.1221 18.5587 12.4125 17.0174 11.3988C16.0433 10.668 14.7878 10.2656 13.4822 10.2656ZM2.18091 34.5459C1.58617 34.5459 0.930519 34.1704 0.828125 33.4527C0.873153 32.6869 1.02202 31.208 1.16599 29.7778C1.31014 28.3456 1.45916 26.8653 1.50423 26.0984L1.95469 21.3186C2.26175 18.9657 2.72271 16.9561 3.36391 15.1751C4.12847 13.0513 5.17155 11.2346 6.46419 9.77538C8.29172 7.56953 11.239 6.19922 14.1557 6.19922C15.3694 6.19922 16.5135 6.43135 17.5561 6.88917C19.6133 7.72063 21.343 9.34599 22.4264 11.4658C23.5149 13.5955 23.803 15.9417 23.2377 18.072C22.9301 19.5237 22.2169 20.9777 21.1752 22.2769C20.1582 23.5452 18.873 24.5821 17.5561 25.1967C15.5027 26.2234 13.0147 26.7225 9.95011 26.7226C8.05406 26.7227 6.17874 26.5399 4.56981 26.3687C4.46547 26.9606 4.3253 27.98 4.17689 29.0593C3.93694 30.8046 3.66499 32.7825 3.44325 33.7238C3.22274 34.2387 2.75086 34.5459 2.18091 34.5459Z" fill="url(#paint0_linear_827_1030)"/>
<defs>
<linearGradient id="paint0_linear_827_1030" x1="13.733" y1="31.6772" x2="25.0618" y2="13.6156" gradientUnits="userSpaceOnUse">
<stop stop-color="#64BC46"/>
<stop offset="0.39749" stop-color="#2874BA"/>
<stop offset="1" stop-color="#E3158F"/>
</linearGradient>
</defs>
</svg>
