<svg width="290" height="148" viewBox="0 0 290 148" fill="none" xmlns="http://www.w3.org/2000/svg">
<path fill-rule="evenodd" clip-rule="evenodd" d="M236.288 50.1375C247.239 50.0973 257.58 56.2248 262.048 65.7407C267.631 78.1812 259.005 89.6976 252.202 93.9109C244.081 98.9402 233.181 98.4434 218.733 90.8414C210.518 86.5185 203.454 81.8571 196.713 76.8608L196.763 76.8108C196.805 76.8349 196.92 76.9079 196.968 76.9362C196.894 76.8797 196.852 76.8437 196.781 76.7855C206.727 64.8547 216.312 56.5445 225.329 52.3375C228.919 50.8496 232.637 50.1513 236.288 50.1376L236.288 50.1375ZM65.4206 40.9383C80.4868 40.8077 94.6599 48.1958 105.582 53.7522C106.044 53.9877 112.291 57.9585 117.162 61.0415C102.038 82.0019 83.5057 97.1381 64.3156 96.1114C46.932 94.4942 39.6432 85.9768 37.1573 76.5063C34.6712 67.0358 37.7519 56.2206 42.8175 49.7582C47.0652 45.4678 52.7564 42.4775 58.9148 41.4821C61.0965 41.1293 63.2683 40.957 65.4205 40.9384L65.4206 40.9383ZM169.488 0.710279C159.333 1.05744 154.913 5.76269 152.35 8.80667C148.035 13.9289 142.755 22.0139 135.246 32.5605C114.408 19.5672 101.991 14.4274 101.879 14.3813C101.854 14.3813 101.848 14.3562 101.832 14.3562C101.609 14.2607 101.417 14.1924 101.195 14.0969C86.1258 6.77603 65.8714 3.2864 47.4815 8.64774C46.3929 8.89861 45.3134 9.18394 44.2392 9.48829C40.073 10.7891 36.1411 12.4759 32.4681 14.4942C6.75582 28.62 -6.20894 59.0222 3.04489 87.7211C13.6211 120.52 47.6141 134.533 73.3397 130.428C74.111 130.304 74.8709 130.159 75.6339 130.018C87.2421 128.126 98.9633 123.44 110.348 116.159C126.757 105.664 136.728 93.3544 140.617 87.9848C144.567 83.5406 146.113 82.1531 148.878 78.8928L152.452 80.9963L161.411 86.7202L147.868 105.338C140.668 115.236 132.883 124.437 130.763 135.252C129.803 139.182 132.543 146.107 136.22 147C137.984 147.428 143.146 148.118 148.395 143.687C154.926 138.174 160.14 130.26 173.526 110.942C175.901 107.514 177.872 104.952 180.733 100.998L182.34 98.9942C182.802 99.295 183.277 99.6076 183.742 99.9102C191.409 105.681 197.008 107.748 208.019 112.724C218.838 117.613 234.116 121.971 249.26 119.369C272.337 115.404 291.3 95.7204 288.792 67.8339C286.286 39.9475 260.821 22.343 233.087 26.2732C205.994 30.1124 190.866 46.798 178.778 62.8446L169.896 56.645C169.896 56.645 168.172 55.2438 167.342 54.5745C175.094 43.8963 191.287 29.5578 188.211 15.8449C185.564 4.04307 176.609 0.474895 169.488 0.718574V0.710279Z" fill="url(#paint0_linear_4081_19796)"/>
<path fill-rule="evenodd" clip-rule="evenodd" d="M167.3 54.5717L155.55 70.0494C165.854 74.7114 175.657 79.7772 180.049 81.7241C196.659 89.0841 214.047 97.0169 231.919 98.9285C249.791 100.841 257.173 89.8453 257.173 89.8453C257.173 89.8453 245.553 104.685 221.818 92.3338C203.266 82.6789 196.733 76.8101 196.733 76.8101L178.737 62.8419L167.3 54.5717ZM76.9977 6.98836C34.6452 5.83783 26.0486 49.0177 36.3112 70.6071C36.3112 70.6071 34.368 41.9273 64.0896 40.6847C77.7447 40.1137 99.6199 47.003 120.859 55.2966L135.23 32.5632C135.23 32.5632 96.4291 7.72207 76.9977 6.98836Z" fill="url(#paint1_linear_4081_19796)"/>
<path fill-rule="evenodd" clip-rule="evenodd" d="M163.399 1.3686C159.101 2.64281 154.202 5.53929 149.842 11.7839C144.734 19.1007 135.207 32.5807 135.207 32.5807L117.169 61.1168L117.143 61.0585C117.143 61.0585 91.0847 105.707 59.2349 112.205C27.3845 118.705 5.24705 94.0513 5.24705 94.0513C5.24705 94.0513 13.0608 112.989 32.8186 123.19C32.8143 123.189 32.7209 123.177 32.7209 123.177C32.7209 123.177 54.7077 136.227 81.8227 128.888C102.755 123.222 108.464 117.059 108.464 117.059C108.464 117.059 122.734 98.3185 129.233 83.6264C138.267 63.2021 142.675 48.0816 146.124 38.3386C155.413 12.1021 154.589 7.19399 163.399 1.3686H163.399Z" fill="url(#paint2_linear_4081_19796)"/>
<path fill-rule="evenodd" clip-rule="evenodd" d="M161.508 86.7804L161.491 86.801C161.491 86.801 139.812 115.19 137.065 120.056C134.317 124.923 131.57 131.683 131.57 131.683C131.57 131.683 143.467 121.33 156.376 111.181C163.68 105.438 176.297 96.2904 176.297 96.2904L161.508 86.7804ZM225.546 40.8985C219.216 40.9082 211.921 42.6708 203.721 47.3555C195.267 52.1847 187.565 58.4892 181.096 64.64L196.791 76.7827C196.791 76.7827 207.044 65.0374 213.952 59.553C238.119 40.366 254.833 56.6189 254.833 56.6189C254.833 56.6189 244.533 40.8692 225.546 40.8985Z" fill="url(#paint3_linear_4081_19796)"/>
<defs>
<linearGradient id="paint0_linear_4081_19796" x1="88.3026" y1="108.453" x2="152.639" y2="43.5094" gradientUnits="userSpaceOnUse">
<stop stop-color="#64BC46"/>
<stop offset="0.4" stop-color="#2874BA"/>
<stop offset="1" stop-color="#E3158F"/>
</linearGradient>
<linearGradient id="paint1_linear_4081_19796" x1="58.2458" y1="85.6776" x2="218.267" y2="125.395" gradientUnits="userSpaceOnUse">
<stop stop-color="#3070B8"/>
<stop offset="1" stop-color="#E3158F"/>
</linearGradient>
<linearGradient id="paint2_linear_4081_19796" x1="84.1822" y1="137.144" x2="145.833" y2="72.0875" gradientUnits="userSpaceOnUse">
<stop stop-color="#A9D04A"/>
<stop offset="1" stop-color="#64BC46"/>
</linearGradient>
<linearGradient id="paint3_linear_4081_19796" x1="171.187" y1="130.124" x2="237.828" y2="76.1839" gradientUnits="userSpaceOnUse">
<stop stop-color="#2B72B9"/>
<stop offset="1" stop-color="#DB1991"/>
</linearGradient>
</defs>
</svg>
