<svg width="368" height="228" viewBox="0 0 368 228" fill="none" xmlns="http://www.w3.org/2000/svg">
<g clip-path="url(#clip0_4055_18931)">
<path fill-rule="evenodd" clip-rule="evenodd" d="M281.392 30.4052C261.565 18.0594 237.733 15.3435 217.641 23.1401C175.256 36.2437 144.683 68.259 120.365 97.8486C135.17 113.541 147.967 123.922 167.58 136.136C196.586 154.199 222.491 162.646 244.575 161.243C268.333 161.093 291.396 147.934 304.766 126.9C317.37 107.073 319.307 84.2246 310.081 64.2147C304.819 50.6552 294.631 38.6484 281.392 30.4052ZM13.5366 205.242C7.50683 201.486 3.23038 193.539 6.72344 185.616C12.0155 178.136 22.8622 164.082 33.3519 150.49C43.8557 136.88 54.7134 122.812 60.0121 115.321L94.7579 69.7042C112.727 47.7871 130.089 30.323 147.835 16.3135C168.995 -0.391078 191.041 -12.2246 213.361 -18.8581C245.817 -29.6841 284.35 -24.9692 313.923 -6.55324C326.228 1.10965 336.362 10.6866 344.043 21.9117C359.65 43.3303 366.925 70.7301 364.525 99.0636C362.115 127.529 350.223 153.135 331.04 171.164C318.756 183.941 302.344 194.18 283.58 200.774C265.262 207.212 245.684 209.611 228.453 207.528C201.15 204.972 172.774 194.324 141.702 174.976C122.478 163.005 104.618 149.312 89.387 137.417C84.5919 142.759 76.7341 152.21 68.4149 162.216C54.9626 178.396 39.7173 196.733 31.526 204.876C26.0397 208.704 19.3152 208.84 13.5366 205.242Z" fill="url(#paint0_linear_4055_18931)"/>
<path fill-rule="evenodd" clip-rule="evenodd" d="M104.604 134.918H103.032V124.595C101.351 126.119 99.1357 127.062 96.7475 127.062C91.6411 127.062 87.3203 122.741 87.3203 117.635V116.064H97.6431C96.119 114.382 95.1763 112.167 95.1763 109.779C95.1763 104.672 99.4971 100.352 104.604 100.352H106.175V110.674C107.856 109.15 110.071 108.208 112.46 108.208C117.566 108.208 121.887 112.528 121.887 117.635V119.206H111.564C113.088 120.887 114.031 123.103 114.031 125.491C114.031 130.597 109.71 134.918 104.604 134.918ZM106.172 119.41V131.571C108.843 130.848 110.885 128.366 110.885 125.491C110.885 122.615 108.843 120.133 106.172 119.41ZM96.7446 123.92C93.8693 123.92 91.3868 121.877 90.6641 119.206H102.825C102.102 121.877 99.6199 123.92 96.7446 123.92ZM106.383 116.063H118.544C117.821 113.392 115.323 111.35 112.463 111.35C109.604 111.35 107.106 113.392 106.383 116.063ZM98.3203 109.779C98.3203 106.919 100.363 104.421 103.034 103.698V115.859C100.363 115.137 98.3203 112.638 98.3203 109.779Z" fill="white" fill-opacity="0.5"/>
<path fill-rule="evenodd" clip-rule="evenodd" d="M340.062 76.0368L354.207 90.1357C354.831 90.7568 354.831 91.7351 354.207 92.3251L350.624 95.8964C350.017 96.502 349.035 96.502 348.428 95.8964L334.235 81.7509C330.621 83.1018 326.399 82.341 323.502 79.4529C319.919 75.8971 319.591 70.3228 322.489 66.3788L328.456 72.3258L330.668 70.1364L324.686 64.1584C328.658 61.2703 334.235 61.5963 337.819 65.1676C340.763 68.1179 341.511 72.4034 340.062 76.0368ZM334.799 77.9311L349.536 92.62L350.907 91.2381L336.185 76.5647C336.902 75.6485 337.369 74.6237 337.556 73.5213C337.945 71.363 337.307 69.0494 335.624 67.3724C334.144 65.9129 332.197 65.2297 330.265 65.3383L335.079 70.1363L328.474 76.7199L323.66 71.922C323.551 73.8474 324.236 75.8038 325.716 77.2634C327.336 78.8783 329.564 79.5149 331.683 79.2043C332.789 79.0491 333.848 78.6298 334.799 77.9311Z" fill="white" fill-opacity="0.5"/>
<path d="M251.842 -1.7934C252.439 -4.02147 253.278 -5.66006 254.36 -6.70917C255.458 -7.76771 256.928 -8.05023 258.769 -7.55675C260.611 -7.06327 261.736 -6.08538 262.145 -4.62309C262.57 -3.17022 262.484 -1.32975 261.887 0.898321C261.283 3.15215 260.431 4.81477 259.329 5.88619C258.244 6.94818 256.78 7.23243 254.939 6.73895C253.097 6.24547 251.965 5.26585 251.544 3.80011C251.138 2.32493 251.238 0.46043 251.842 -1.7934ZM259.724 0.318566C260.003 -0.724634 260.169 -1.62583 260.22 -2.38501C260.285 -3.14074 260.171 -3.79921 259.88 -4.3604C259.592 -4.93448 259.042 -5.33022 258.231 -5.54763C257.42 -5.76503 256.746 -5.69713 256.209 -5.34392C255.676 -5.00358 255.243 -4.49178 254.908 -3.80852C254.586 -3.1218 254.285 -2.25684 254.005 -1.21364C253.715 -0.131806 253.536 0.793419 253.469 1.56203C253.401 2.33064 253.512 2.99555 253.804 3.55674C254.108 4.12139 254.666 4.51242 255.477 4.72982C256.289 4.94723 256.961 4.88577 257.494 4.54543C258.039 4.20855 258.475 3.69031 258.8 2.99071C259.126 2.29112 259.434 1.4004 259.724 0.318566ZM265.227 -3.40387L265.765 -5.413L269.784 -4.33631L266.01 9.74689L263.788 9.1516L267.024 -2.92247L265.227 -3.40387ZM270.971 3.33243C271.568 1.10436 272.408 -0.534226 273.49 -1.58334C274.588 -2.64188 276.057 -2.9244 277.899 -2.43092C279.741 -1.93744 280.866 -0.959552 281.275 0.502744C281.7 1.95561 281.614 3.79608 281.017 6.02415C280.413 8.27798 279.56 9.9406 278.459 11.012C277.374 12.074 275.91 12.3583 274.069 11.8648C272.227 11.3713 271.095 10.3917 270.674 8.92594C270.268 7.45076 270.368 5.58626 270.971 3.33243ZM278.853 5.4444C279.133 4.4012 279.298 3.5 279.35 2.74082C279.415 1.98509 279.301 1.32662 279.01 0.765426C278.722 0.191352 278.172 -0.204388 277.361 -0.421796C276.549 -0.639204 275.876 -0.571301 275.339 -0.218087C274.806 0.122249 274.372 0.63405 274.037 1.31731C273.715 2.00403 273.415 2.86899 273.135 3.91219C272.845 4.99402 272.666 5.91925 272.598 6.68786C272.531 7.45648 272.642 8.12138 272.934 8.68257C273.238 9.24722 273.796 9.63825 274.607 9.85565C275.418 10.0731 276.091 10.0116 276.623 9.67126C277.169 9.33438 277.605 8.81614 277.93 8.11654C278.256 7.41695 278.564 6.52623 278.853 5.4444ZM283.347 6.64855C283.944 4.42048 284.784 2.78189 285.865 1.73278C286.964 0.674243 288.433 0.391715 290.275 0.885197C292.117 1.37868 293.242 2.35657 293.651 3.81886C294.076 5.27173 293.99 7.1122 293.393 9.34027C292.789 11.5941 291.936 13.2567 290.835 14.3281C289.75 15.3901 288.286 15.6744 286.445 15.1809C284.603 14.6874 283.471 13.7078 283.05 12.2421C282.644 10.7669 282.743 8.90238 283.347 6.64855ZM291.229 8.76052C291.509 7.71732 291.674 6.81612 291.726 6.05694C291.79 5.3012 291.677 4.64274 291.386 4.08154C291.098 3.50747 290.548 3.11173 289.737 2.89432C288.925 2.67691 288.251 2.74482 287.715 3.09803C287.182 3.43837 286.748 3.95017 286.413 4.63343C286.091 5.32015 285.791 6.18511 285.511 7.22831C285.221 8.31014 285.042 9.23537 284.974 10.004C284.906 10.7726 285.018 11.4375 285.31 11.9987C285.614 12.5633 286.172 12.9544 286.983 13.1718C287.794 13.3892 288.466 13.3277 288.999 12.9874C289.545 12.6505 289.981 12.1323 290.306 11.4327C290.632 10.7331 290.939 9.84235 291.229 8.76052ZM295.723 9.96467C296.32 7.7366 297.16 6.09801 298.241 5.0489C299.339 3.99036 300.809 3.70783 302.651 4.20132C304.493 4.6948 305.618 5.67269 306.027 7.13498C306.452 8.58785 306.366 10.4283 305.769 12.6564C305.165 14.9102 304.312 16.5728 303.211 17.6443C302.126 18.7062 300.662 18.9905 298.82 18.497C296.979 18.0035 295.847 17.0239 295.425 15.5582C295.02 14.083 295.119 12.2185 295.723 9.96467ZM303.605 12.0766C303.885 11.0334 304.05 10.1322 304.102 9.37306C304.166 8.61732 304.053 7.95886 303.762 7.39766C303.474 6.82359 302.924 6.42785 302.113 6.21044C301.301 5.99303 300.627 6.06094 300.091 6.41415C299.558 6.75449 299.124 7.26629 298.789 7.94955C298.467 8.63627 298.166 9.50123 297.887 10.5444C297.597 11.6263 297.418 12.5515 297.35 13.3201C297.282 14.0887 297.394 14.7536 297.685 15.3148C297.99 15.8795 298.547 16.2705 299.359 16.4879C300.17 16.7053 300.842 16.6438 301.375 16.3035C301.921 15.9666 302.357 15.4484 302.682 14.7488C303.008 14.0492 303.315 13.1585 303.605 12.0766ZM309.109 8.3542L309.647 6.34507L313.665 7.42176L309.892 21.505L307.67 20.9097L310.905 8.8356L309.109 8.3542ZM315.863 10.1639L316.401 8.15478L320.419 9.23147L316.646 23.3147L314.424 22.7194L317.659 10.6453L315.863 10.1639ZM321.607 16.9002C322.204 14.6721 323.043 13.0336 324.125 11.9844C325.223 10.9259 326.693 10.6434 328.535 11.1369C330.377 11.6303 331.502 12.6082 331.911 14.0705C332.336 15.5234 332.25 17.3639 331.653 19.5919C331.049 21.8458 330.196 23.5084 329.095 24.5798C328.009 25.6418 326.546 25.926 324.704 25.4326C322.863 24.9391 321.731 23.9595 321.309 22.4937C320.904 21.0185 321.003 19.154 321.607 16.9002ZM329.489 19.0122C329.769 17.969 329.934 17.0678 329.986 16.3086C330.05 15.5529 329.937 14.8944 329.645 14.3332C329.357 13.7591 328.808 13.3634 327.996 13.146C327.185 12.9286 326.511 12.9965 325.975 13.3497C325.442 13.69 325.008 14.2018 324.673 14.8851C324.351 15.5718 324.05 16.4368 323.771 17.48C323.481 18.5618 323.302 19.487 323.234 20.2556C323.166 21.0243 323.278 21.6892 323.569 22.2504C323.873 22.815 324.431 23.206 325.243 23.4234C326.054 23.6408 326.726 23.5794 327.259 23.239C327.805 22.9022 328.24 22.3839 328.566 21.6843C328.891 20.9847 329.199 20.094 329.489 19.0122ZM333.983 20.2163C334.58 17.9883 335.419 16.3497 336.501 15.3006C337.599 14.242 339.069 13.9595 340.911 14.453C342.752 14.9465 343.878 15.9243 344.286 17.3866C344.712 18.8395 344.626 20.68 344.029 22.908C343.425 25.1619 342.572 26.8245 341.471 27.8959C340.385 28.9579 338.922 29.2422 337.08 28.7487C335.239 28.2552 334.107 27.2756 333.685 25.8098C333.28 24.3347 333.379 22.4702 333.983 20.2163ZM341.865 22.3283C342.144 21.2851 342.31 20.3839 342.362 19.6247C342.426 18.869 342.313 18.2105 342.021 17.6493C341.733 17.0753 341.184 16.6795 340.372 16.4621C339.561 16.2447 338.887 16.3126 338.351 16.6658C337.818 17.0061 337.384 17.5179 337.049 18.2012C336.727 18.8879 336.426 19.7529 336.147 20.7961C335.857 21.8779 335.678 22.8031 335.61 23.5718C335.542 24.3404 335.654 25.0053 335.945 25.5665C336.249 26.1311 336.807 26.5221 337.619 26.7396C338.43 26.957 339.102 26.8955 339.635 26.5552C340.181 26.2183 340.616 25.7 340.942 25.0004C341.267 24.3008 341.575 23.4101 341.865 22.3283ZM347.368 18.6059L347.907 16.5967L351.925 17.6734L348.151 31.7566L345.93 31.1613L349.165 19.0873L347.368 18.6059Z" fill="white" fill-opacity="0.5"/>
<path d="M214.467 193.945C214.184 192.122 214.268 190.652 214.72 189.534C215.182 188.404 216.166 187.722 217.673 187.488C219.18 187.253 220.32 187.605 221.092 188.543C221.873 189.469 222.405 190.843 222.689 192.667C222.975 194.511 222.889 196.003 222.43 197.144C221.979 198.272 221 198.953 219.493 199.187C217.986 199.422 216.841 199.071 216.058 198.135C215.285 197.186 214.754 195.79 214.467 193.945ZM220.918 192.942C220.785 192.088 220.615 191.375 220.407 190.803C220.21 190.229 219.914 189.784 219.519 189.468C219.123 189.141 218.593 189.029 217.929 189.132C217.265 189.235 216.794 189.503 216.515 189.935C216.235 190.356 216.083 190.871 216.059 191.479C216.046 192.086 216.105 192.816 216.238 193.67C216.376 194.555 216.544 195.29 216.743 195.875C216.942 196.459 217.239 196.909 217.633 197.226C218.038 197.541 218.573 197.646 219.237 197.543C219.901 197.44 220.373 197.177 220.653 196.756C220.943 196.333 221.095 195.813 221.107 195.196C221.118 194.579 221.056 193.827 220.918 192.942ZM224.596 192.37C224.312 190.546 224.396 189.076 224.849 187.959C225.31 186.829 226.294 186.147 227.801 185.912C229.308 185.678 230.448 186.03 231.22 186.967C232.001 187.893 232.533 189.268 232.817 191.091C233.104 192.935 233.017 194.428 232.558 195.568C232.107 196.696 231.128 197.377 229.621 197.612C228.114 197.846 226.969 197.495 226.186 196.559C225.413 195.611 224.883 194.214 224.596 192.37ZM231.046 191.366C230.913 190.513 230.743 189.8 230.535 189.228C230.338 188.654 230.042 188.209 229.647 187.892C229.251 187.565 228.721 187.453 228.057 187.557C227.393 187.66 226.922 187.928 226.644 188.359C226.364 188.781 226.212 189.296 226.187 189.904C226.174 190.51 226.234 191.241 226.366 192.094C226.504 192.98 226.672 193.715 226.871 194.299C227.07 194.883 227.367 195.334 227.761 195.65C228.167 195.965 228.701 196.071 229.365 195.967C230.029 195.864 230.501 195.602 230.781 195.18C231.072 194.757 231.223 194.237 231.235 193.62C231.247 193.003 231.184 192.252 231.046 191.366ZM233.869 186.863L233.614 185.219L236.902 184.707L238.695 196.233L236.877 196.515L235.34 186.634L233.869 186.863ZM240.251 189.935C239.967 188.111 240.052 186.641 240.504 185.523C240.965 184.394 241.949 183.712 243.457 183.477C244.964 183.243 246.103 183.594 246.875 184.532C247.656 185.458 248.189 186.832 248.472 188.656C248.759 190.5 248.673 191.992 248.213 193.133C247.763 194.261 246.784 194.942 245.277 195.176C243.769 195.411 242.624 195.06 241.842 194.124C241.068 193.175 240.538 191.779 240.251 189.935ZM246.702 188.931C246.569 188.077 246.398 187.364 246.191 186.792C245.993 186.218 245.698 185.773 245.303 185.457C244.907 185.13 244.376 185.018 243.712 185.121C243.048 185.225 242.577 185.492 242.299 185.924C242.019 186.345 241.867 186.86 241.843 187.469C241.829 188.075 241.889 188.805 242.022 189.659C242.16 190.544 242.328 191.279 242.527 191.864C242.726 192.448 243.022 192.898 243.417 193.215C243.822 193.53 244.357 193.635 245.021 193.532C245.685 193.429 246.157 193.167 246.437 192.745C246.727 192.322 246.878 191.802 246.89 191.185C246.902 190.568 246.839 189.816 246.702 188.931ZM249.525 184.428L249.269 182.783L252.558 182.272L254.35 193.797L252.532 194.08L250.995 184.199L249.525 184.428ZM255.907 187.499C255.623 185.676 255.707 184.205 256.16 183.088C256.621 181.958 257.605 181.276 259.112 181.042C260.619 180.807 261.759 181.159 262.531 182.097C263.312 183.022 263.844 184.397 264.128 186.22C264.415 188.065 264.328 189.557 263.869 190.697C263.418 191.825 262.439 192.507 260.932 192.741C259.425 192.975 258.28 192.625 257.497 191.688C256.724 190.74 256.193 189.344 255.907 187.499ZM262.357 186.496C262.224 185.642 262.054 184.929 261.846 184.357C261.649 183.783 261.353 183.338 260.958 183.021C260.562 182.695 260.032 182.583 259.368 182.686C258.704 182.789 258.233 183.057 257.954 183.489C257.675 183.91 257.523 184.425 257.498 185.033C257.485 185.64 257.544 186.37 257.677 187.224C257.815 188.109 257.983 188.844 258.182 189.428C258.381 190.013 258.678 190.463 259.072 190.78C259.478 191.094 260.012 191.2 260.676 191.097C261.34 190.994 261.812 190.731 262.092 190.31C262.383 189.887 262.534 189.367 262.546 188.75C262.558 188.132 262.495 187.381 262.357 186.496ZM266.035 185.924C265.751 184.1 265.835 182.63 266.288 181.512C266.749 180.383 267.733 179.701 269.24 179.466C270.747 179.232 271.887 179.583 272.659 180.521C273.44 181.447 273.972 182.821 274.256 184.645C274.543 186.489 274.456 187.982 273.997 189.122C273.546 190.25 272.567 190.931 271.06 191.166C269.553 191.4 268.408 191.049 267.626 190.113C266.852 189.165 266.322 187.768 266.035 185.924ZM272.485 184.92C272.352 184.067 272.182 183.354 271.974 182.781C271.777 182.208 271.481 181.762 271.087 181.446C270.69 181.119 270.16 181.007 269.496 181.11C268.832 181.214 268.361 181.481 268.083 181.913C267.803 182.335 267.651 182.849 267.627 183.458C267.613 184.064 267.673 184.794 267.805 185.648C267.943 186.534 268.111 187.268 268.31 187.853C268.509 188.437 268.806 188.888 269.201 189.204C269.606 189.519 270.14 189.625 270.804 189.521C271.468 189.418 271.94 189.156 272.22 188.734C272.511 188.311 272.662 187.791 272.674 187.174C272.686 186.557 272.623 185.806 272.485 184.92ZM276.163 184.348C275.879 182.525 275.964 181.054 276.416 179.937C276.877 178.807 277.861 178.125 279.368 177.891C280.876 177.656 282.015 178.008 282.787 178.946C283.568 179.871 284.1 181.246 284.384 183.069C284.671 184.914 284.585 186.406 284.125 187.546C283.675 188.674 282.696 189.356 281.188 189.59C279.681 189.824 278.536 189.474 277.754 188.537C276.98 187.589 276.45 186.193 276.163 184.348ZM282.613 183.345C282.481 182.491 282.31 181.778 282.103 181.206C281.905 180.632 281.609 180.187 281.215 179.87C280.818 179.543 280.288 179.432 279.624 179.535C278.96 179.638 278.489 179.906 278.211 180.338C277.931 180.759 277.779 181.274 277.755 181.882C277.741 182.489 277.801 183.219 277.934 184.073C278.071 184.958 278.24 185.693 278.439 186.277C278.637 186.862 278.934 187.312 279.329 187.629C279.734 187.943 280.269 188.049 280.933 187.946C281.597 187.842 282.069 187.58 282.348 187.159C282.639 186.736 282.79 186.216 282.802 185.599C282.814 184.981 282.751 184.23 282.613 183.345ZM285.437 178.841L285.181 177.197L288.469 176.685L290.262 188.211L288.444 188.494L286.907 178.613L285.437 178.841ZM290.964 177.981L290.708 176.337L293.997 175.826L295.789 187.351L293.971 187.634L292.434 177.753L290.964 177.981ZM297.346 181.053C297.062 179.23 297.146 177.759 297.599 176.642C298.06 175.512 299.044 174.83 300.551 174.596C302.058 174.361 303.198 174.713 303.97 175.651C304.751 176.576 305.283 177.951 305.567 179.774C305.854 181.619 305.767 183.111 305.308 184.251C304.857 185.379 303.878 186.06 302.371 186.295C300.864 186.529 299.719 186.178 298.937 185.242C298.163 184.294 297.633 182.897 297.346 181.053ZM303.796 180.05C303.663 179.196 303.493 178.483 303.285 177.911C303.088 177.337 302.792 176.892 302.397 176.575C302.001 176.248 301.471 176.136 300.807 176.24C300.143 176.343 299.672 176.611 299.394 177.043C299.114 177.464 298.962 177.979 298.938 178.587C298.924 179.194 298.984 179.924 299.116 180.778C299.254 181.663 299.422 182.398 299.621 182.982C299.82 183.567 300.117 184.017 300.512 184.333C300.917 184.648 301.451 184.754 302.115 184.651C302.779 184.547 303.251 184.285 303.531 183.864C303.822 183.441 303.973 182.921 303.985 182.303C303.997 181.686 303.934 180.935 303.796 180.05ZM307.474 179.477C307.19 177.654 307.275 176.184 307.727 175.066C308.188 173.937 309.172 173.254 310.679 173.02C312.187 172.786 313.326 173.137 314.098 174.075C314.879 175.001 315.411 176.375 315.695 178.199C315.982 180.043 315.896 181.535 315.436 182.676C314.985 183.804 314.007 184.485 312.499 184.719C310.992 184.954 309.847 184.603 309.065 183.667C308.291 182.718 307.761 181.322 307.474 179.477ZM313.924 178.474C313.791 177.62 313.621 176.907 313.413 176.335C313.216 175.761 312.92 175.316 312.526 175C312.129 174.673 311.599 174.561 310.935 174.664C310.271 174.768 309.8 175.035 309.522 175.467C309.242 175.888 309.09 176.403 309.066 177.012C309.052 177.618 309.112 178.348 309.245 179.202C309.382 180.087 309.551 180.822 309.749 181.407C309.948 181.991 310.245 182.441 310.64 182.758C311.045 183.073 311.58 183.178 312.244 183.075C312.908 182.972 313.379 182.709 313.659 182.288C313.95 181.865 314.101 181.345 314.113 180.728C314.125 180.111 314.062 179.359 313.924 178.474ZM317.602 177.902C317.318 176.079 317.403 174.608 317.855 173.491C318.316 172.361 319.3 171.679 320.808 171.445C322.315 171.21 323.454 171.562 324.226 172.5C325.007 173.425 325.54 174.8 325.823 176.623C326.11 178.468 326.024 179.96 325.564 181.1C325.114 182.228 324.135 182.909 322.627 183.144C321.12 183.378 319.975 183.027 319.193 182.091C318.419 181.143 317.889 179.746 317.602 177.902ZM324.052 176.899C323.92 176.045 323.749 175.332 323.542 174.76C323.344 174.186 323.048 173.741 322.654 173.424C322.258 173.097 321.727 172.985 321.063 173.089C320.399 173.192 319.928 173.46 319.65 173.892C319.37 174.313 319.218 174.828 319.194 175.436C319.18 176.043 319.24 176.773 319.373 177.627C319.51 178.512 319.679 179.247 319.878 179.831C320.076 180.416 320.373 180.866 320.768 181.182C321.173 181.497 321.708 181.603 322.372 181.5C323.036 181.396 323.508 181.134 323.788 180.713C324.078 180.29 324.229 179.77 324.241 179.152C324.253 178.535 324.19 177.784 324.052 176.899ZM326.876 172.395L326.62 170.751L329.908 170.239L331.701 181.765L329.883 182.048L328.346 172.166L326.876 172.395Z" fill="white" fill-opacity="0.5"/>
<path d="M130.708 42.6104L130.512 41.1676L133.398 40.7769L134.767 50.8906L133.172 51.1066L131.998 42.4357L130.708 42.6104ZM136.238 45.4078C136.021 43.8078 136.12 42.5228 136.535 41.5531C136.958 40.5728 137.831 39.9931 139.153 39.8141C140.476 39.635 141.467 39.9624 142.126 40.7961C142.793 41.6194 143.235 42.8311 143.452 44.4311C143.671 46.0497 143.57 47.3538 143.148 48.3433C142.734 49.3223 141.866 49.9013 140.543 50.0804C139.221 50.2595 138.225 49.9327 137.557 49.1002C136.896 48.2572 136.457 47.0264 136.238 45.4078ZM141.898 44.6415C141.796 43.8923 141.66 43.2657 141.488 42.7615C141.325 42.2561 141.074 41.8616 140.734 41.5779C140.393 41.285 139.931 41.178 139.349 41.2569C138.766 41.3358 138.349 41.5617 138.098 41.9348C137.846 42.2986 137.704 42.7463 137.673 43.278C137.65 43.8085 137.69 44.4483 137.791 45.1975C137.897 45.9744 138.031 46.6202 138.195 47.1348C138.359 47.6495 138.611 48.0487 138.95 48.3323C139.299 48.6147 139.765 48.7165 140.348 48.6376C140.931 48.5587 141.348 48.3373 141.6 47.9736C141.862 47.6085 142.003 47.1562 142.024 46.6164C142.045 46.0767 142.003 45.4184 141.898 44.6415ZM144.446 40.7505L144.25 39.3077L147.136 38.917L148.505 49.0307L146.91 49.2467L145.736 40.5758L144.446 40.7505ZM149.975 43.5479C149.759 41.9479 149.858 40.6629 150.273 39.6932C150.696 38.7129 151.569 38.1332 152.891 37.9542C154.214 37.7751 155.205 38.1024 155.864 38.9362C156.531 39.7595 156.973 40.9712 157.19 42.5712C157.409 44.1898 157.307 45.4938 156.886 46.4834C156.472 47.4624 155.604 48.0414 154.281 48.2205C152.959 48.3996 151.963 48.0728 151.295 47.2403C150.634 46.3973 150.195 45.1665 149.975 43.5479ZM155.636 42.7816C155.534 42.0324 155.398 41.4058 155.226 40.9016C155.063 40.3962 154.812 40.0016 154.472 39.718C154.131 39.4251 153.669 39.3181 153.087 39.397C152.504 39.4759 152.087 39.7018 151.836 40.0749C151.584 40.4387 151.442 40.8864 151.411 41.4181C151.388 41.9486 151.428 42.5884 151.529 43.3376C151.634 44.1145 151.769 44.7603 151.933 45.2749C152.097 45.7896 152.349 46.1888 152.688 46.4724C153.037 46.7548 153.503 46.8565 154.086 46.7777C154.669 46.6988 155.086 46.4774 155.338 46.1137C155.6 45.7486 155.741 45.2962 155.762 44.7565C155.783 44.2168 155.741 43.5585 155.636 42.7816ZM158.184 38.8906L157.988 37.4478L160.874 37.0571L162.243 47.1708L160.648 47.3868L159.474 38.7159L158.184 38.8906ZM163.713 41.688C163.497 40.0879 163.596 38.803 164.011 37.8332C164.434 36.853 165.307 36.2733 166.629 36.0942C167.952 35.9152 168.943 36.2425 169.602 37.0763C170.269 37.8996 170.711 39.1113 170.928 40.7113C171.147 42.3299 171.045 43.6339 170.624 44.6235C170.21 45.6025 169.342 46.1815 168.019 46.3606C166.697 46.5396 165.701 46.2129 165.033 45.3804C164.372 44.5374 163.933 43.3066 163.713 41.688ZM169.374 40.9217C169.272 40.1725 169.136 39.5459 168.964 39.0417C168.801 38.5363 168.55 38.1417 168.21 37.8581C167.869 37.5652 167.407 37.4582 166.825 37.5371C166.242 37.616 165.825 37.8419 165.574 38.215C165.322 38.5787 165.18 39.0265 165.149 39.5582C165.126 40.0887 165.166 40.7285 165.267 41.4777C165.372 42.2546 165.507 42.9004 165.671 43.415C165.835 43.9297 166.087 44.3288 166.426 44.6125C166.775 44.8949 167.241 44.9966 167.824 44.9178C168.407 44.8389 168.824 44.6175 169.076 44.2537C169.338 43.8887 169.479 43.4363 169.5 42.8966C169.521 42.3569 169.479 41.6986 169.374 40.9217ZM171.922 37.0307L171.726 35.5879L174.612 35.1972L175.981 45.3109L174.386 45.5269L173.212 36.856L171.922 37.0307ZM177.451 39.8281C177.235 38.228 177.334 36.9431 177.749 35.9733C178.172 34.9931 179.045 34.4134 180.367 34.2343C181.69 34.0553 182.681 34.3826 183.34 35.2164C184.007 36.0397 184.449 37.2513 184.666 38.8514C184.885 40.47 184.783 41.774 184.362 42.7636C183.948 43.7426 183.08 44.3216 181.757 44.5007C180.435 44.6797 179.439 44.353 178.771 43.5205C178.11 42.6775 177.671 41.4467 177.451 39.8281ZM183.112 39.0618C183.01 38.3126 182.874 37.6859 182.702 37.1818C182.539 36.6764 182.288 36.2818 181.948 35.9982C181.607 35.7053 181.145 35.5983 180.563 35.6772C179.98 35.7561 179.563 35.982 179.312 36.3551C179.06 36.7188 178.918 37.1666 178.887 37.6983C178.864 38.2288 178.904 38.8686 179.005 39.6177C179.11 40.3947 179.245 41.0404 179.409 41.5551C179.573 42.0698 179.824 42.4689 180.164 42.7526C180.513 43.035 180.979 43.1367 181.562 43.0578C182.145 42.979 182.562 42.7576 182.814 42.3938C183.075 42.0288 183.217 41.5764 183.238 41.0367C183.259 40.497 183.217 39.8387 183.112 39.0618ZM185.659 35.1708L185.464 33.728L188.35 33.3373L189.719 43.451L188.124 43.667L186.95 34.9961L185.659 35.1708ZM191.189 37.9682C190.973 36.3681 191.072 35.0832 191.487 34.1134C191.91 33.1332 192.783 32.5535 194.105 32.3744C195.428 32.1954 196.419 32.5227 197.078 33.3565C197.745 34.1798 198.187 35.3914 198.404 36.9915C198.623 38.6101 198.521 39.9141 198.1 40.9036C197.686 41.8827 196.818 42.4617 195.495 42.6408C194.173 42.8198 193.177 42.4931 192.509 41.6606C191.848 40.8176 191.408 39.5868 191.189 37.9682ZM196.85 37.2019C196.748 36.4527 196.612 35.826 196.44 35.3219C196.277 34.8165 196.026 34.4219 195.686 34.1383C195.345 33.8454 194.883 33.7384 194.301 33.8173C193.718 33.8962 193.301 34.1221 193.05 34.4951C192.798 34.8589 192.656 35.3067 192.625 35.8384C192.602 36.3689 192.642 37.0087 192.743 37.7578C192.848 38.5347 192.983 39.1805 193.147 39.6952C193.311 40.2099 193.562 40.609 193.902 40.8927C194.251 41.1751 194.717 41.2768 195.3 41.1979C195.882 41.119 196.3 40.8977 196.552 40.5339C196.813 40.1689 196.955 39.7165 196.976 39.1768C196.997 38.6371 196.955 37.9788 196.85 37.2019Z" fill="white" fill-opacity="0.5"/>
</g>
<defs>
<linearGradient id="paint0_linear_4055_18931" x1="148.774" y1="249.094" x2="377.672" y2="137.498" gradientUnits="userSpaceOnUse">
<stop stop-color="#E3158F"/>
<stop offset="0.39749" stop-color="#2874BA"/>
<stop offset="1" stop-color="#64BC46"/>
</linearGradient>
<clipPath id="clip0_4055_18931">
<rect width="368" height="228" fill="white"/>
</clipPath>
</defs>
</svg>
