<svg width="317" height="234" viewBox="0 0 317 234" fill="none" xmlns="http://www.w3.org/2000/svg">
<g clip-path="url(#clip0_4055_18898)">
<ellipse opacity="0.103" cx="232.926" cy="3.54306" rx="57.5506" ry="57.379" fill="#378703"/>
<ellipse opacity="0.103" cx="95.8854" cy="4.9544" rx="61.0885" ry="58.3196" fill="#0041DC"/>
<ellipse opacity="0.198" cx="158.391" cy="195.199" rx="158.5" ry="15.7557" fill="#9FA5AA"/>
<path d="M165.467 173.329C157.21 173.329 149.292 174.462 143.454 176.479C137.616 178.496 134.336 181.231 134.336 184.083C134.34 184.269 134.359 184.456 134.391 184.642V184.641L135.52 191.46V191.461C136.67 196.882 149.737 201.077 165.471 201.078C181.194 201.073 194.245 196.88 195.397 191.463L195.423 191.461L196.551 184.642L196.522 184.644C196.563 184.457 196.591 184.271 196.604 184.084C196.604 181.232 193.324 178.496 187.486 176.48C181.647 174.463 173.729 173.33 165.472 173.33L165.467 173.329Z" fill="#A5A5A4"/>
<ellipse cx="165.466" cy="184.146" rx="29.247" ry="7.99542" fill="#868685"/>
<path d="M131.031 137.584L138.24 181.362C138.624 186.311 150.587 190.257 165.22 190.26C179.393 190.255 191.142 186.543 192.131 181.759H192.157L199.432 137.584L165.236 139.649L131.031 137.584Z" fill="#A5A5A4"/>
<path d="M164.302 113.128C142.281 113.128 124.43 118.922 124.43 126.07C124.436 126.294 124.459 126.519 124.501 126.743L124.475 126.741L125.92 134.947V134.948C127.394 141.471 144.128 146.52 164.281 146.521C184.419 146.514 201.133 141.468 202.609 134.95L202.641 134.947L204.085 126.741L204.048 126.743C204.101 126.519 204.135 126.294 204.151 126.07C204.152 122.637 199.951 119.345 192.473 116.918C184.996 114.491 174.854 113.128 164.279 113.128L164.302 113.128Z" fill="#BABAB9"/>
<ellipse opacity="0.589" cx="165.7" cy="127.003" rx="30.4263" ry="8.70091" fill="#4E3318"/>
<path d="M165.7 117.831C157.63 117.831 149.89 118.765 144.184 120.426C138.478 122.088 135.273 124.342 135.273 126.691C135.281 127.844 136.062 128.986 137.572 130.052C142.261 126.731 153.369 124.563 165.7 124.561C178.036 124.564 189.146 126.736 193.827 130.059C195.34 128.991 196.121 127.847 196.126 126.691C196.127 124.342 192.922 122.088 187.215 120.426C181.509 118.765 173.77 117.831 165.7 117.831V117.831Z" fill="#868685"/>
<path d="M161.282 -43.959C162.046 -30.8539 160.843 15.5675 160.554 31.7928C160.181 52.6735 156.977 130.566 156.977 130.566H157.019C157.087 132.372 160.527 133.821 164.747 133.822C168.966 133.821 172.404 132.372 172.472 130.566H172.544C172.544 130.566 169.34 52.6735 168.967 31.7928C168.678 15.5675 167.476 -30.8539 168.239 -43.959H161.282Z" fill="#3A4E66"/>
<path d="M165.898 35.199C165.898 35.199 137.729 21.0159 135.89 20.1508C133.934 19.109 133.768 23.9479 135.714 25.0913C139.843 27.5182 167.357 45.8725 167.357 45.8725L165.898 35.199Z" fill="#3A4E66"/>
<path d="M60.7422 -14.0141C60.7422 -14.0141 100.556 -26.4145 123.528 -12.2289C146.052 1.68041 139.611 22.4394 139.611 22.4394C139.611 22.4394 127.643 40.6435 102.405 32.477C76.6663 24.1483 60.7422 -14.0141 60.7422 -14.0141H60.7422Z" fill="#0041DC"/>
<path d="M164.343 87.885C164.343 87.885 182.803 84.8433 184.775 84.3707C185.56 84.1071 186.291 86.4207 185.207 86.7847C180.699 88.2989 165.329 94.8646 165.329 94.8646L164.343 87.885Z" fill="#3A4E66"/>
<path d="M231.607 72.2179C231.607 72.2179 209.579 61.5725 195.045 68.029C180.794 74.3597 182.755 87.1529 182.755 87.1529C182.755 87.1529 188.139 98.8994 203.473 96.1856C219.111 93.418 231.607 72.2179 231.607 72.2179Z" fill="#FFCC33"/>
<path d="M182.845 87.4388C182.845 87.4388 188.281 98.7141 203.68 96.1451C219.385 93.5251 231.891 73.2236 231.891 73.2236L182.845 87.4388Z" fill="#FFD455"/>
<path d="M161.267 85.989C161.267 85.989 137.516 78.3626 135.972 77.9113C134.316 77.3381 134.737 81.0625 136.396 81.7147C139.917 83.0989 165.242 93.7587 165.242 93.7587L161.267 85.989Z" fill="#3A4E66"/>
<path d="M90.2352 65.5404C90.2352 65.5404 116.666 53.075 134.028 60.7047C151.052 68.1858 148.631 83.2272 148.631 83.2272C148.631 83.2272 142.118 97.0291 123.777 93.7992C105.073 90.5052 90.2352 65.5404 90.2352 65.5404Z" fill="#66CCCC"/>
<path d="M148.75 83.2719C148.75 83.2719 142.223 97.0182 123.846 93.8013C105.103 90.5206 90.2352 65.6562 90.2352 65.6562L148.75 83.2719Z" fill="#84D6D6"/>
<path d="M163.408 91.3382C158.641 94.2095 154.666 96.2238 153.399 97.2661C152.922 97.7362 151.566 96.3098 152.225 95.661C154.967 92.9617 163.018 85.7334 163.018 85.7334L163.408 91.3382Z" fill="#3A4E66"/>
<path d="M125.169 112.512C125.169 112.512 140.501 115.657 148.536 109.468C156.415 103.4 153.222 95.858 153.222 95.858C153.222 95.858 148.063 89.4831 138.953 93.5003C129.663 97.5973 125.169 112.512 125.169 112.512Z" fill="#82D4FF"/>
<path d="M153.258 96.1091C153.258 96.1091 148.13 89.9759 138.966 93.9279C129.62 97.9584 125.008 112.425 125.008 112.425L153.258 96.1091Z" fill="#6DCDFF"/>
<path d="M164.092 35.199C164.092 35.199 192.261 21.0159 194.1 20.1508C196.056 19.109 196.221 23.9479 194.276 25.0913C190.146 27.5182 162.633 45.8725 162.633 45.8725L164.092 35.199Z" fill="#3A4E66"/>
<path d="M268.776 -13.1971C268.776 -13.1971 228.866 -25.4426 205.914 -11.1961C183.41 2.77279 189.933 23.4816 189.933 23.4816C189.933 23.4816 201.982 41.6197 227.224 33.3765C252.967 24.9694 268.776 -13.1971 268.776 -13.1971Z" fill="#378703"/>
<path opacity="0.406" d="M162.458 133.753C162.458 133.753 162.868 95.196 162.786 86.4524C162.705 77.7088 163.191 26.6607 163.062 22.9127C162.931 19.1647 163.406 4.18088 162.75 3.55083C162.094 2.92077 162.067 40.39 162.054 41.7951C162.054 43.2 161.008 107.369 160.971 111.272C160.932 115.175 158.838 132.769 160.356 133.38C161.874 133.99 162.613 133.808 162.458 133.753H162.458Z" fill="#23363D"/>
<path d="M139.994 22.4785C139.994 22.4785 128.111 40.6244 103.053 32.4841C77.498 24.182 61.6875 -13.8584 61.6875 -13.8584L139.994 22.4785Z" fill="#0037B8"/>
<path d="M190 23.0811C190 23.0811 201.967 41.1154 227.037 32.9194C252.605 24.5604 268.307 -13.3877 268.307 -13.3877L190 23.0811Z" fill="#327B03"/>
<path d="M164.615 6.87418L164.757 -16.3604" stroke="#263442" stroke-width="2" stroke-linecap="round" stroke-linejoin="round"/>
<path d="M162.539 3.7322L164.759 7.76814L166.517 3.55957" stroke="#263442" stroke-width="2" stroke-linecap="round" stroke-linejoin="round"/>
<path d="M164.279 83.7497L164.421 44.6172" stroke="#263442" stroke-width="2" stroke-linecap="round" stroke-linejoin="round"/>
<path d="M162.469 48.9472L164.689 43.7871L166.447 48.9949" stroke="#263442" stroke-width="2" stroke-linecap="round" stroke-linejoin="round"/>
<ellipse cx="164.756" cy="166.039" rx="9.67039" ry="9.64156" stroke="#838383" stroke-width="2" stroke-linecap="round" stroke-linejoin="round"/>
<path d="M171.125 164.071L176.137 163.452L178.201 168.155L175.105 167.536L174.073 165.185L171.862 167.289L171.125 164.071Z" fill="#A5A5A4" stroke="#A5A5A4" stroke-width="0.264583"/>
<path d="M171.602 170.189L174.005 166.274L175.375 170.978" stroke="#838383" stroke-width="2" stroke-linecap="round" stroke-linejoin="round"/>
<path d="M158.388 169.417L153.376 170.036L151.312 165.333L154.408 165.952L155.44 168.303L157.651 166.199L158.388 169.417Z" fill="#A5A5A4" stroke="#A5A5A4" stroke-width="0.264583"/>
<path d="M153.203 164.241L155.607 168.155L156.977 163.452" stroke="#838383" stroke-width="2" stroke-linecap="round" stroke-linejoin="round"/>
</g>
<defs>
<clipPath id="clip0_4055_18898">
<rect width="317" height="234" fill="white"/>
</clipPath>
</defs>
</svg>
