<svg viewBox="0 0 189 54" fill="none" xmlns="http://www.w3.org/2000/svg">
<mask id="mask0_635_4226" style="mask-type:alpha" maskUnits="userSpaceOnUse" x="0" y="0" width="189" height="54">
<path fill-rule="evenodd" clip-rule="evenodd" d="M0 54L0.000306896 10C0.000306896 4.47715 4.10798 0 9.17505 0H179.825C184.892 0 189 4.47715 189 10V54H0Z" fill="#E6F6FF"/>
</mask>
<g mask="url(#mask0_635_4226)">
<path d="M75.0174 20.5916C29.3341 27.1737 -2.36367 69.5432 4.21847 115.227C10.8006 160.91 53.1701 192.608 98.8534 186.025C144.537 179.443 176.234 137.074 169.652 91.3905C163.07 45.7072 120.701 14.0095 75.0174 20.5916Z" stroke="#FED538"/>
<path d="M74.9996 4.06185C20.3713 11.9328 -17.533 62.5984 -9.66207 117.227C-1.79112 171.855 48.8745 209.759 103.503 201.888C158.131 194.017 196.035 143.352 188.164 88.7235C180.293 34.0952 129.628 -3.80909 74.9996 4.06185Z" stroke="#BBDEF5"/>
<path opacity="0.33" d="M170.741 33.3701C162.754 34.5208 157.213 41.928 158.364 49.9146C159.514 57.9012 166.922 63.4428 174.908 62.2921C182.895 61.1413 188.436 53.7341 187.286 45.7475C186.135 37.7609 178.728 32.2193 170.741 33.3701Z" fill="#BBDEF5"/>
<path d="M171.241 36.8406C165.171 37.7151 160.96 43.3446 161.834 49.4145C162.709 55.4843 168.338 59.6959 174.408 58.8213C180.478 57.9468 184.689 52.3172 183.815 46.2474C182.94 40.1776 177.311 35.966 171.241 36.8406Z" fill="#BBDEF5"/>
<path d="M65.0926 13.165C60.3007 13.8554 56.9758 18.2998 57.6662 23.0917C58.3566 27.8837 62.801 31.2086 67.5929 30.5182C72.3849 29.8278 75.7098 25.3834 75.0194 20.5915C74.329 15.7995 69.8846 12.4746 65.0926 13.165Z" fill="#FED538"/>
</g>
</svg>
