<svg width="299" height="354" viewBox="0 0 299 354" fill="none" xmlns="http://www.w3.org/2000/svg">
<path fill-rule="evenodd" clip-rule="evenodd" d="M235.998 60.0555C235.9 60.5827 235.805 61.0994 235.714 61.6054C200.068 40.2102 160.293 16.7859 132.583 10.3983C101.318 3.19057 86.0703 0.152016 19.5516 0.152016C17.4159 0.152016 0.410156 0.151855 0.410156 0.151855V353.152H298.41V96.7873V0.152016C263.745 2.72781 241.322 31.265 235.998 60.0555Z" fill="#A3D7EF"/>
<path fill-rule="evenodd" clip-rule="evenodd" d="M228.634 114.116C233.901 85.9168 230.792 88.7308 235.714 61.6055C260.382 76.4118 283.074 90.2477 298.41 96.7874C298.41 96.7874 298.41 96.7878 298.408 96.7886L298.407 96.7889C298.406 96.7893 298.405 96.7897 298.404 96.7902L219.137 132.015C219.766 131.724 225.943 128.522 228.634 114.116ZM219.139 132.016C219.136 132.017 219.132 132.019 219.13 132.02C219.115 132.027 219.101 132.033 219.086 132.039L219.139 132.016Z" fill="#0D509F" fill-opacity="0.24"/>
<path fill-rule="evenodd" clip-rule="evenodd" d="M211.43 133.246C209.042 133.246 207.041 132.941 205.131 132.285C203.412 131.696 201.962 130.901 200.246 129.923C192.447 125.481 183.206 118.942 171.163 109.344C160.461 100.814 149.006 91.0343 136.878 80.6804C116.202 63.0286 94.8224 44.7767 73.9316 29.9071C52.3052 14.5143 29.2356 2.83942 14.8594 0.151855H19.7047C52.2033 0.151855 72.9016 0.86791 89.2832 2.56447C96.7653 3.33935 103.692 4.35121 111.082 5.74881C118.095 7.07516 124.967 8.63558 132.579 10.3903C145.034 13.2616 160.928 19.7957 181.168 30.3661C198.984 39.6702 217.881 50.8963 235.709 61.5974C233.304 74.856 232.81 81.0456 232.332 87.0314C231.836 93.2561 231.322 99.692 228.63 114.108C226.391 126.091 221.75 130.323 219.859 131.587C219.591 131.737 219.33 131.886 219.081 132.03C219.056 132.043 216.54 133.246 211.43 133.246Z" fill="#0D509F"/>
<path opacity="0.49" fill-rule="evenodd" clip-rule="evenodd" d="M298.408 96.7903C291.893 94.0109 283.752 89.8103 272.786 83.5706C263.016 78.0111 252.258 71.5472 240.869 64.7037C239.16 63.6772 237.441 62.644 235.711 61.6061C235.814 61.0413 235.907 60.5346 235.995 60.0563C237.345 52.7605 239.741 45.6467 243.119 38.9123C246.608 31.9553 251.009 25.6843 256.199 20.2736C261.697 14.5422 267.948 9.92495 274.78 6.55011C282.121 2.92423 290.07 0.771554 298.408 0.151862V96.7891L298.408 96.7903Z" fill="#DEF0FC"/>
</svg>
