<svg width="37" height="43" viewBox="0 0 37 43" fill="none" xmlns="http://www.w3.org/2000/svg">
<path fill-rule="evenodd" clip-rule="evenodd" d="M28.8704 7.38853C28.8586 7.45222 28.8471 7.51464 28.8361 7.57576C24.5299 4.99111 19.7248 2.16134 16.3774 1.38968C12.6003 0.518948 10.7584 0.151875 2.72254 0.151875C2.46453 0.151875 0.410156 0.151855 0.410156 0.151855V42.7961H36.4101V11.8259V0.151875C32.2224 0.463044 29.5136 3.91049 28.8704 7.38853Z" fill="#A3D7EF"/>
<path fill-rule="evenodd" clip-rule="evenodd" d="M27.9816 13.9192C28.6178 10.5126 28.2423 10.8526 28.8369 7.57568C31.8169 9.36436 34.5582 11.0358 36.411 11.8259C36.411 11.8259 36.4109 11.8259 36.4106 11.826L36.4106 11.826C36.4105 11.8261 36.4104 11.8261 36.4102 11.8262L26.8344 16.0816C26.9103 16.0464 27.6566 15.6596 27.9816 13.9192ZM26.8345 16.0816C26.8341 16.0818 26.8337 16.082 26.8334 16.0821C26.8316 16.0829 26.8299 16.0837 26.8281 16.0845L26.8345 16.0816Z" fill="#0D509F" fill-opacity="0.24"/>
<path fill-rule="evenodd" clip-rule="evenodd" d="M25.9031 16.2303C25.6146 16.2303 25.3728 16.1934 25.1421 16.1143C24.9343 16.043 24.7592 15.947 24.5519 15.8289C23.6098 15.2923 22.4934 14.5023 21.0386 13.3428C19.7457 12.3124 18.3618 11.1309 16.8967 9.88013C14.3989 7.7477 11.8162 5.54278 9.29248 3.74644C6.6799 1.88691 3.89298 0.476527 2.15625 0.151855H2.74159C6.66759 0.151855 9.16805 0.238359 11.147 0.443312C12.0509 0.536922 12.8877 0.65916 13.7804 0.827997C14.6277 0.988227 15.4578 1.17673 16.3774 1.38872C17.882 1.73558 19.8021 2.52494 22.2472 3.8019C24.3995 4.92588 26.6823 6.28206 28.8361 7.5748C28.5455 9.17651 28.4858 9.92424 28.4281 10.6474C28.3681 11.3993 28.3061 12.1768 27.9808 13.9184C27.7104 15.3659 27.1498 15.8772 26.9213 16.0299C26.8889 16.048 26.8573 16.0661 26.8273 16.0835C26.8243 16.0849 26.5203 16.2303 25.9031 16.2303Z" fill="#0D509F"/>
<path opacity="0.49" fill-rule="evenodd" clip-rule="evenodd" d="M36.4101 11.8263C35.623 11.4905 34.6395 10.9831 33.3148 10.2293C32.1345 9.55766 30.8349 8.77679 29.459 7.95006C29.2526 7.82605 29.0449 7.70124 28.836 7.57585C28.8484 7.50762 28.8596 7.4464 28.8703 7.38862C29.0333 6.50726 29.3228 5.64787 29.7309 4.83433C30.1524 3.99388 30.684 3.23631 31.311 2.58267C31.9751 1.89029 32.7304 1.3325 33.5557 0.924798C34.4425 0.486773 35.4028 0.226718 36.4101 0.151856V11.8261L36.4101 11.8263Z" fill="#DEF0FC"/>
</svg>
