<?xml version="1.0" encoding="UTF-8"?><svg id="Layer_2" xmlns="http://www.w3.org/2000/svg" xmlns:xlink="http://www.w3.org/1999/xlink" viewBox="0 0 249.48 256.52"><defs><style>.cls-1,.cls-2{fill:url(#linear-gradient);}.cls-2,.cls-3,.cls-4,.cls-5,.cls-6,.cls-7{stroke-width:0px;}.cls-8{fill:#606;}.cls-9{clip-path:url(#clippath-1);}.cls-3{fill:url(#linear-gradient-2);}.cls-4{fill:url(#linear-gradient-3);}.cls-5{fill:#833981;}.cls-6{fill:#662365;}.cls-7{fill:#fff;}</style><linearGradient id="linear-gradient" x1="40.41" y1="131.78" x2="209.07" y2="131.78" gradientUnits="userSpaceOnUse"><stop offset="0" stop-color="#fff"/><stop offset="1" stop-color="#aa4c9b"/></linearGradient><clipPath id="clippath-1"><circle class="cls-2" cx="124.74" cy="131.78" r="84.33"/></clipPath><linearGradient id="linear-gradient-2" x1="59.63" y1="110.45" x2="123.67" y2="110.45" gradientUnits="userSpaceOnUse"><stop offset="0" stop-color="#fff"/><stop offset=".05" stop-color="#fdfdfd"/><stop offset=".07" stop-color="#f9f6f9"/><stop offset=".08" stop-color="#f8f3f8"/><stop offset="1" stop-color="#aa4c9b"/></linearGradient><linearGradient id="linear-gradient-3" x1="123.67" y1="110.45" x2="187.71" y2="110.45" xlink:href="#linear-gradient"/></defs><g id="Layer_1-2"><circle class="cls-8" cx="124.74" cy="131.78" r="124.74"/><path class="cls-7" d="m83.21,31.73l4.85,10.68-1.81.82-7.17-4.71,3,6.61-2.06.94-4.85-10.68,1.79-.82,7.22,4.8-3.05-6.7,2.06-.94Z"/><path class="cls-7" d="m93.27,35.21l1.61-.5-.15-.47c-.28-.91-.65-1.11-1.82-.75-.79.25-1.15.48-1.32,1.13l-1.78-.56c.29-1.18,1.09-1.82,2.76-2.34,2.09-.66,3.47-.41,4.2,1.91l1.67,5.32-2.03.64-.22-.71c-.15.65-.54,1.11-1.48,1.41-1.69.53-3.13,0-3.65-1.65-.54-1.72.53-2.87,2.23-3.41Zm2.08,1.02l-1.36.43c-.84.26-1.13.66-.93,1.29.19.62.75.76,1.47.54.94-.29,1.27-.84.92-1.95l-.1-.31Z"/><path class="cls-7" d="m100.15,29.75l1.06-.22-.38-1.83,2.11-.44.38,1.83,1.63-.34.38,1.8-1.63.34.73,3.48c.17.83.41,1.15,1.2.98l.68-.14.39,1.86-.9.19c-2.01.42-2.96.03-3.41-2.11l-.8-3.81-1.06.22-.38-1.8Z"/><path class="cls-7" d="m109.14,24.79l2.33-.31.27,2.09-2.33.31-.27-2.09Zm.5,3.19l2.16-.28,1.11,8.43-2.16.28-1.11-8.43Z"/><path class="cls-7" d="m124.21,31.62c.09,2.33-.95,3.95-3.51,4.05-2.46.1-3.73-1.38-3.83-3.76l-.04-1.02c-.1-2.55,1.19-3.93,3.51-4.02,2.36-.1,3.72,1.18,3.83,3.72l.04,1.02Zm-2.16.02l-.04-.88c-.05-1.36-.53-2.09-1.6-2.04-1.07.04-1.48.81-1.43,2.17l.04.88c.05,1.22.39,2.13,1.6,2.08,1.19-.05,1.47-.98,1.42-2.2Z"/><path class="cls-7" d="m128.85,26.96l2.12.15-.05.71c.35-.4,1.06-.79,2.01-.73,1.71.12,3.04,1.03,2.87,3.54l-.38,5.31-2.15-.15.35-4.97c.09-1.32-.35-1.83-1.23-1.89-1-.07-1.54.56-1.62,1.67l-.35,4.98-2.17-.15.6-8.48Z"/><path class="cls-7" d="m146.25,36.42c-.77.91-1.82,1.13-3.32.85-2.51-.46-3.41-2.31-3.01-4.47l.21-1.14c.47-2.53,1.96-3.51,4.14-3.11,2.36.44,3.19,2.01,2.72,4.55l-.18.95-4.77-.88c-.2,1.16.02,2.06,1.2,2.28.89.16,1.22-.05,1.62-.44l1.38,1.4Zm-3.93-4.76l2.63.49c.15-1.1-.2-1.63-1-1.78-.85-.16-1.36.35-1.62,1.29Z"/><path class="cls-7" d="m153.21,27.42l2.09.59-2.32,8.19c-.25.88-.1,1.37.78,1.62l-.51,1.8c-2.21-.62-3.08-1.49-2.5-3.53l2.45-8.67Z"/><path class="cls-7" d="m161.09,29.84l2.04.75-2.93,8c-.32.86-.21,1.35.66,1.67l-.64,1.76c-2.16-.79-2.96-1.72-2.23-3.71l3.1-8.46Z"/><path class="cls-7" d="m168.53,40.03l1.52.72.21-.45c.41-.86.28-1.26-.83-1.79-.75-.36-1.17-.42-1.74-.07l-.92-1.62c1.01-.67,2.03-.6,3.62.15,1.98.94,2.83,2.05,1.79,4.25l-2.39,5.04-1.92-.91.32-.68c-.55.38-1.15.45-2.05.03-1.6-.76-2.3-2.13-1.56-3.69.77-1.63,2.34-1.75,3.95-.99Zm.84,2.16l-1.29-.61c-.8-.38-1.28-.28-1.56.31-.28.58.04,1.07.71,1.39.89.42,1.5.24,2-.8l.14-.29Z"/><path class="cls-7" d="m44.55,73.23l-.96-4.51-6.01-.38,1.58-2,3.95.16-.2-.9-1.95-1.54,1.35-1.71,9.2,7.28-1.35,1.71-4.96-3.92.95,3.79-1.6,2.03Z"/><path class="cls-7" d="m35.02,79.11c-1.96-1.25-2.71-3.03-1.33-5.2,1.32-2.08,3.26-2.28,5.27-1l.86.55c2.15,1.37,2.55,3.21,1.3,5.18-1.27,1.99-3.09,2.39-5.24,1.02l-.86-.55Zm1.22-1.79l.75.47c1.15.73,2.02.76,2.59-.15.58-.9.18-1.68-.97-2.41l-.75-.47c-1.03-.66-1.97-.89-2.62.13-.64,1-.04,1.77,1,2.43Z"/><path class="cls-7" d="m26.5,87.54l.91-1.96,4.52,2.09c1.23.57,1.86.28,2.18-.42.33-.71.04-1.46-1.06-1.97l-4.54-2.1.91-1.97,7.71,3.57-.89,1.93-.65-.3c.27.48.39,1.21,0,2.08-.43.92-1.13,1.52-2.03,1.68.37.77.46,1.73,0,2.7-.78,1.68-2.25,2.2-4.26,1.27l-4.83-2.23.91-1.97,4.52,2.09c1.16.54,1.82.36,2.19-.43.33-.71.03-1.45-1.06-1.95l-4.54-2.1Z"/><path class="cls-7" d="m24.17,104.84c-2.11-.65-3.34-2.2-2.7-4.3.26-.84.6-1.36,1.02-1.64l-3.41-1.05.64-2.08,11.21,3.44-.64,2.08-.54-.17c.32.53.38,1.19.13,2.01-.58,1.89-2.28,2.75-4.61,2.04l-1.11-.34Zm.77-2.04l.85.26c1.3.4,2.14.21,2.45-.81.3-.99-.21-1.65-1.39-2.01l-1.02-.31c-1.17-.36-2.13-.35-2.49.82-.34,1.12.44,1.7,1.61,2.06Z"/><path class="cls-7" d="m19.6,114.91c-.91-.78-1.12-1.82-.84-3.33.48-2.5,2.33-3.4,4.48-2.99l1.13.22c2.52.48,3.5,1.98,3.08,4.15-.45,2.35-2.03,3.18-4.56,2.69l-.95-.18.91-4.76c-1.16-.2-2.06,0-2.29,1.19-.17.88.04,1.22.43,1.62l-1.4,1.38Zm4.78-3.9l-.5,2.62c1.09.16,1.63-.19,1.78-.99.16-.85-.35-1.36-1.28-1.63Z"/><path class="cls-7" d="m26.24,119.53l-.1,1.08,1.86.18-.21,2.15-1.86-.18-.16,1.66-1.83-.18.16-1.66-3.54-.34c-.85-.08-1.22.05-1.29.85l-.07.69-1.9-.18.09-.91c.2-2.05.85-2.84,3.04-2.63l3.88.37.1-1.08,1.83.18Z"/><path class="cls-7" d="m18.27,134.49c-1.03-.61-1.42-1.6-1.39-3.13.04-2.55,1.71-3.75,3.9-3.71l1.16.02c2.57.04,3.79,1.35,3.75,3.56-.04,2.4-1.45,3.48-4.03,3.44l-.97-.02.08-4.84c-1.17,0-2.03.36-2.05,1.56-.01.9.25,1.19.71,1.53l-1.15,1.6Zm4.04-4.66l-.04,2.67c1.11-.03,1.57-.47,1.58-1.28.01-.87-.57-1.29-1.54-1.39Z"/><path class="cls-7" d="m25.68,138.47l.22,2.11-.71.07c.46.28.96.91,1.06,1.86.18,1.71-.49,3.18-3,3.43l-5.29.54-.22-2.15,4.95-.51c1.32-.14,1.74-.66,1.65-1.54-.1-1-.81-1.42-1.93-1.31l-4.97.51-.22-2.16,8.45-.87Z"/><path class="cls-7" d="m25.68,154.59c.35-.46.51-.87.32-1.77-.12-.55-.39-1.01-.87-.91-.5.11-.59.59-.53,1.5.12,2.11-.44,3.31-2.09,3.66-1.6.34-2.82-.57-3.27-2.71-.36-1.7-.16-2.82.65-3.74l1.51,1.38c-.38.43-.56.9-.34,1.93.16.73.5,1.13.93,1.04.52-.11.6-.51.55-1.59-.09-1.79.38-3.21,2.06-3.57,1.58-.34,2.8.59,3.25,2.67.29,1.36.21,2.56-.71,3.44l-1.45-1.33Z"/><path class="cls-7" d="m23.56,168.83l-.72-2.04,4.69-1.67c1.28-.46,1.52-1.1,1.27-1.82-.26-.74-.99-1.07-2.13-.67l-4.71,1.67-.73-2.05,8.01-2.85.71,2-.67.24c.52.16,1.13.59,1.45,1.49.34.96.25,1.88-.28,2.62.81.29,1.53.92,1.89,1.93.62,1.75-.07,3.15-2.16,3.89l-5.01,1.78-.73-2.05,4.69-1.67c1.2-.43,1.55-1.02,1.26-1.84-.26-.74-.99-1.06-2.13-.65l-4.71,1.67Z"/><path class="cls-7" d="m33.11,178.03l.77,1.5.44-.22c.85-.43.99-.83.43-1.92-.38-.74-.67-1.05-1.33-1.11l.26-1.85c1.21.09,1.98.76,2.78,2.32,1,1.95.99,3.35-1.17,4.46l-4.96,2.54-.97-1.89.67-.34c-.67-.04-1.19-.35-1.64-1.22-.81-1.57-.53-3.09,1.01-3.88,1.6-.82,2.92.03,3.74,1.62Zm-.66,2.23l-.65-1.27c-.4-.79-.84-1-1.43-.7-.58.29-.62.87-.28,1.54.45.88,1.04,1.11,2.07.58l.29-.15Zm5.46-7.4l.96,1.88-1.77.91-.96-1.88,1.77-.91Zm1.58,3.09l.95,1.86-1.77.91-.95-1.86,1.77-.91Z"/><path class="cls-7" d="m40.4,188.46c.15-.36.26-.79-.04-1.25-.44-.69-1.24-.82-2.24-.17l-4.2,2.71-1.18-1.83,7.14-4.61,1.15,1.79-.6.39c.51.01,1.19.24,1.73,1.09.55.86.6,1.74.13,2.65l-1.9-.75Z"/><path class="cls-7" d="m49.47,196.53l-4.61-.08-1.72,5.77-1.59-1.99,1.05-3.81h-.92s-1.94,1.54-1.94,1.54l-1.36-1.7,9.17-7.32,1.36,1.7-4.94,3.95,3.9-.07,1.61,2.02Z"/><path class="cls-7" d="m51.31,208.89c-1.16.3-2.14-.11-3.21-1.2-1.79-1.81-1.47-3.84.09-5.38l.82-.81c1.83-1.8,3.62-1.75,5.17-.18,1.68,1.71,1.47,3.47-.37,5.28l-.69.68-3.4-3.45c-.82.83-1.17,1.7-.32,2.56.63.64,1.03.66,1.58.56l.34,1.94Zm-.5-6.14l1.87,1.9c.75-.81.77-1.45.19-2.03-.61-.62-1.32-.49-2.07.13Z"/><path class="cls-7" d="m59.33,206.47l1.65,1.34-.45.55c.52-.13,1.33-.04,2.06.56,1.33,1.08,1.9,2.6.31,4.55l-3.36,4.13-1.67-1.36,3.15-3.86c.84-1.03.77-1.7.08-2.26-.78-.63-1.58-.43-2.29.44l-3.16,3.88-1.69-1.38,5.37-6.59Z"/><path class="cls-7" d="m74.49,217.36l.23-.4c1.09-1.9,2.11-1.98,3.9-.96l.55.31-.94,1.65-.35-.2c-.69-.4-1.02-.17-1.44.57l-.06.1,1.2.68-.91,1.59-1.19-.68-3.31,5.78-1.87-1.07,3.31-5.78-.94-.54.91-1.59.94.54Z"/><path class="cls-7" d="m84.97,227.93c-.97,2.12-2.63,3.1-4.96,2.04-2.24-1.02-2.71-2.92-1.72-5.08l.42-.93c1.06-2.32,2.83-2.97,4.95-2,2.15.98,2.79,2.73,1.74,5.05l-.42.93Zm-1.94-.96l.37-.8c.56-1.24.47-2.1-.5-2.55-.97-.44-1.69.05-2.25,1.29l-.37.8c-.51,1.11-.61,2.08.49,2.58,1.08.49,1.76-.21,2.26-1.32Zm-.64-8.98l1.92.87-.82,1.81-1.92-.87.83-1.81Zm3.16,1.44l1.9.87-.83,1.81-1.9-.87.83-1.81Z"/><path class="cls-7" d="m93.97,228.64c-.11-.38-.29-.78-.81-.96-.77-.26-1.48.13-1.86,1.25l-1.61,4.73-2.06-.7,2.73-8.05,2.01.68-.23.68c.41-.31,1.08-.55,2.03-.23.97.33,1.55.99,1.75,1.99l-1.96.59Z"/><path class="cls-7" d="m110.69,230.02l2.13.33-1.28,8.23c-.44,2.81-2.12,3.21-4.23,2.89-1.56-.24-2.5-.77-3.06-2.02l1.61-.82c.29.56.74.89,1.53,1.01,1.28.2,1.82-.1,2.02-1.39l.04-.27c-.51.32-1.13.43-1.89.31-2.2-.34-3.08-2.08-2.74-4.31l.18-1.14c.38-2.45,1.91-3.56,3.91-3.25.76.12,1.31.41,1.71.87l.07-.44Zm-.75,4.8l.17-1.06c.21-1.34-.11-2.15-1.17-2.32s-1.61.51-1.82,1.85l-.14.87c-.19,1.21,0,2.17,1.17,2.35,1.14.18,1.62-.59,1.79-1.7Z"/><path class="cls-7" d="m121.25,233.32c-.2-.33-.49-.67-1.04-.7-.82-.04-1.39.52-1.45,1.71l-.26,4.99-2.17-.12.45-8.49,2.12.11-.04.71c.31-.41.9-.82,1.9-.77,1.02.05,1.76.54,2.22,1.45l-1.73,1.1Z"/><path class="cls-7" d="m133.57,239.2l-2.12.1-.03-.71c-.33.59-.77.91-1.89.96-1.71.08-3.17-.7-3.29-3.2l-.25-5.3,2.17-.1.24,4.98c.06,1.34.56,1.78,1.46,1.73,1-.05,1.45-.68,1.39-1.85l-.24-4.99,2.16-.1.4,8.49Z"/><path class="cls-7" d="m137.11,230.3l2.1-.34.11.71c.25-.47.85-1.02,1.79-1.17,1.7-.27,3.2.31,3.6,2.79l.85,5.25-2.13.34-.79-4.92c-.21-1.31-.76-1.7-1.63-1.56-.99.16-1.37.89-1.2,2l.79,4.93-2.15.35-1.35-8.39Z"/><path class="cls-7" d="m151.93,223.88l2.08-.58,3.16,11.3-2.08.58-.13-.47c-.32.51-.81.9-1.58,1.11-2.14.6-3.67-.62-4.28-2.79l-.31-1.11c-.67-2.39.27-4.03,2.22-4.57.71-.2,1.34-.18,1.91.08l-.99-3.54Zm2.13,7.61l-.29-1.03c-.33-1.2-.99-1.72-1.97-1.44-1.03.29-1.26,1.13-.89,2.44l.24.85c.33,1.18.9,1.97,2.03,1.66,1.18-.33,1.21-1.29.88-2.47Z"/><path class="cls-7" d="m157.51,222.05l2.03-.78,3.04,7.96c.33.86.73,1.16,1.59.83l.67,1.75c-2.14.82-3.36.64-4.11-1.34l-3.21-8.42Z"/><path class="cls-7" d="m164.11,219.4l1.89-.93.87,1.79-1.89.92-.87-1.79Zm5.08,4.9l1.51-.74-.22-.44c-.42-.85-.81-1-1.91-.47-.75.37-1.06.65-1.14,1.31l-1.84-.29c.11-1.21.8-1.96,2.37-2.73,1.97-.96,3.37-.93,4.44,1.26l2.45,5.01-1.91.93-.33-.67c-.05.67-.37,1.18-1.25,1.62-1.59.78-3.1.47-3.86-1.08-.79-1.62.09-2.92,1.69-3.7Zm-1.96-6.42l1.88-.92.87,1.79-1.88.92-.87-1.79Zm4.18,7.12l-1.28.63c-.79.39-1.02.82-.73,1.42.28.58.86.64,1.53.31.89-.43,1.13-1.02.62-2.06l-.14-.29Z"/><path class="cls-7" d="m178.72,215.06l1.83-1.15,4.44,7.04c1.51,2.4.52,3.81-1.29,4.96-1.34.84-2.38,1.06-3.63.48l.67-1.67c.59.23,1.14.18,1.82-.24,1.09-.69,1.31-1.27.61-2.38l-.14-.23c-.18.58-.57,1.07-1.22,1.47-1.88,1.19-3.69.46-4.89-1.45l-.62-.98c-1.32-2.1-.9-3.94.81-5.01.65-.41,1.26-.55,1.86-.47l-.24-.37Zm2.59,4.11l-.57-.91c-.72-1.15-1.5-1.55-2.4-.98-.91.57-.88,1.44-.16,2.59l.47.75c.65,1.04,1.43,1.63,2.42,1,.98-.62.84-1.51.24-2.46Z"/><path class="cls-7" d="m187.6,208.56l1.69-1.35,5.2,6.51c1.77,2.22.94,3.73-.74,5.07-1.24.99-2.25,1.32-3.56.88l.49-1.74c.61.17,1.15.06,1.78-.44,1.01-.81,1.16-1.41.35-2.43l-.17-.21c-.12.59-.45,1.12-1.05,1.6-1.74,1.39-3.62.86-5.03-.9l-.72-.9c-1.55-1.94-1.32-3.81.26-5.08.6-.48,1.19-.69,1.79-.67l-.28-.35Zm3.03,3.8l-.67-.84c-.85-1.06-1.66-1.37-2.5-.7-.84.67-.71,1.53.13,2.59l.55.69c.76.96,1.6,1.46,2.52.73.9-.72.66-1.59-.04-2.47Z"/><path class="cls-7" d="m196.59,205.05l1.2-1.18-.35-.35c-.67-.68-1.09-.69-1.96.17-.59.59-.8.96-.66,1.61l-1.84.32c-.28-1.18.13-2.11,1.37-3.35,1.56-1.54,2.89-1.96,4.6-.23l3.92,3.96-1.51,1.5-.53-.53c.17.65.03,1.24-.67,1.93-1.26,1.24-2.78,1.44-4,.21-1.27-1.28-.85-2.79.41-4.05Zm2.32-.05l-1.01,1c-.63.62-.7,1.1-.24,1.57.46.46,1.02.33,1.55-.2.7-.69.74-1.33-.07-2.15l-.23-.23Z"/><path class="cls-7" d="m199.58,197.02l1.34-1.65.55.45c-.12-.52-.04-1.33.56-2.06,1.08-1.33,2.59-1.9,4.55-.32l4.13,3.35-1.36,1.68-3.87-3.14c-1.03-.83-1.7-.77-2.26-.08-.63.78-.43,1.58.44,2.29l3.88,3.15-1.37,1.69-6.6-5.36Z"/><path class="cls-7" d="m206.34,182.38l1.17-1.82,9.88,6.33-1.16,1.82-.42-.27c.11.59,0,1.21-.44,1.88-1.2,1.88-3.15,1.98-5.05.76l-.97-.62c-2.09-1.34-2.48-3.18-1.39-4.89.39-.62.88-1.03,1.48-1.21l-3.09-1.98Zm6.66,4.26l-.9-.58c-1.04-.67-1.88-.62-2.43.24-.58.9-.19,1.68.96,2.41l.74.48c1.03.66,1.99.87,2.62-.12.66-1.03.04-1.77-.99-2.43Z"/><path class="cls-7" d="m221.56,176.15c.66.99.59,2.06-.09,3.43-1.14,2.28-3.16,2.65-5.12,1.67l-1.04-.51c-2.3-1.14-2.84-2.85-1.85-4.83,1.07-2.15,2.81-2.52,5.12-1.37l.87.43-2.16,4.34c1.06.51,1.98.55,2.52-.53.4-.81.29-1.19.02-1.68l1.72-.95Zm-5.65,2.47l1.19-2.39c-1.01-.45-1.62-.25-1.98.48-.39.78-.04,1.41.79,1.92Z"/><path class="cls-7" d="m219.2,162.25l-.44-.13c-2.1-.65-2.4-1.63-1.79-3.59l.19-.6,1.82.56-.12.39c-.23.76.06,1.03.87,1.28l.11.04.41-1.32,1.76.54-.41,1.32,6.37,1.96-.64,2.06-6.37-1.96-.32,1.04-1.76-.54.32-1.04Z"/><path class="cls-7" d="m218.04,154.65l.44-2.06,1.95.41-.44,2.06-1.95-.41Zm.72-3.39l.43-2.05,1.95.41-.43,2.05-1.95-.41Zm6.27,2.41l.35-1.65-.48-.1c-.93-.2-1.29.02-1.54,1.22-.17.82-.14,1.24.33,1.71l-1.37,1.27c-.88-.83-1.05-1.84-.69-3.55.46-2.15,1.34-3.23,3.72-2.72l5.46,1.16-.44,2.08-.73-.16c.49.45.71,1.02.5,1.98-.37,1.73-1.54,2.73-3.23,2.37-1.76-.37-2.25-1.87-1.88-3.61Zm1.91-1.31l-.29,1.4c-.18.87.02,1.31.67,1.45.63.13,1.04-.29,1.19-1.02.21-.96-.11-1.52-1.24-1.76l-.32-.07Z"/><path class="cls-7" d="m225.93,141c-.35.18-.7.45-.76.99-.09.81.44,1.42,1.63,1.55l4.96.54-.24,2.16-8.45-.92.23-2.11.71.08c-.39-.33-.77-.94-.66-1.94.11-1.01.63-1.73,1.57-2.14l1,1.79Z"/><path class="cls-7" d="m220.75,131.24l.04-2.16,11.73.19-.04,2.16h-.49c.4.44.63,1.02.62,1.82-.04,2.23-1.64,3.34-3.9,3.3l-1.16-.02c-2.48-.04-3.79-1.4-3.75-3.43.01-.73.21-1.34.62-1.81l-3.67-.06Zm7.9.13l-1.07-.02c-1.24-.02-1.93.46-1.95,1.48-.02,1.07.72,1.52,2.08,1.55h.88c1.22.03,2.15-.29,2.17-1.46.02-1.22-.89-1.53-2.12-1.55Z"/><path class="cls-7" d="m220.51,125.29l-.19-2.34,2.1-.17.19,2.34-2.1.17Zm3.21-.34l-.17-2.17,8.47-.67.17,2.17-8.47.67Z"/><path class="cls-7" d="m222.34,113.76l-.36-2.13,8.21-1.39c2.8-.47,3.72.99,4.08,3.1.26,1.56.06,2.61-.95,3.54l-1.28-1.26c.44-.45.61-.98.47-1.77-.21-1.27-.67-1.7-1.96-1.48l-.27.04c.46.39.76.94.89,1.69.37,2.2-1,3.58-3.22,3.96l-1.14.19c-2.45.41-3.98-.69-4.32-2.68-.13-.75-.03-1.37.28-1.89l-.44.07Zm4.79-.81l-1.05.18c-1.34.23-2,.79-1.82,1.84.18,1.06.99,1.37,2.33,1.14l.87-.15c1.21-.21,2.05-.69,1.86-1.85-.19-1.14-1.07-1.35-2.18-1.17Z"/><path class="cls-7" d="m217.99,108.64l-.6-2.09,3.74-1.08c-.5-.19-1.04-.66-1.31-1.6-.47-1.65-.08-3.22,2.34-3.91l5.12-1.47.6,2.08-4.79,1.38c-1.27.37-1.6.96-1.36,1.81.28.96,1.05,1.25,2.13.94l4.8-1.38.6,2.09-11.28,3.24Z"/><path class="cls-7" d="m221.95,88.27c1.19.16,1.94.91,2.52,2.33.97,2.36-.09,4.12-2.12,4.95l-1.07.44c-2.38.98-4.01.25-4.85-1.79-.91-2.22-.04-3.77,2.34-4.75l.9-.37,1.84,4.48c1.08-.46,1.72-1.13,1.26-2.25-.34-.83-.7-1-1.25-1.12l.42-1.92Zm-1.86,5.88l-1.02-2.47c-1,.47-1.26,1.05-.95,1.8.33.8,1.04.95,1.96.66Z"/><path class="cls-7" d="m213.85,88.02l-.51-.96-1.65.87-1-1.91,1.65-.87-.78-1.47,1.62-.85.78,1.47,3.14-1.65c.75-.4.99-.71.62-1.42l-.32-.62,1.69-.89.43.81c.96,1.82.84,2.84-1.1,3.86l-3.45,1.81.51.96-1.62.85Z"/><path class="cls-7" d="m212.25,71.11c1.19-.07,2.07.54,2.91,1.82,1.39,2.14.67,4.06-1.17,5.26l-.97.63c-2.15,1.4-3.9.99-5.1-.86-1.31-2.01-.74-3.7,1.43-5.1l.81-.53,2.64,4.06c.97-.65,1.48-1.43.82-2.44-.49-.76-.88-.85-1.44-.87l.06-1.97Zm-.75,6.12l-1.46-2.24c-.9.64-1.04,1.27-.6,1.95.47.73,1.19.75,2.05.29Z"/><path class="cls-7" d="m202.85,66.8c-.11.37-.18.82.16,1.24.51.64,1.31.69,2.24-.05l3.9-3.12,1.36,1.7-6.64,5.31-1.33-1.66.56-.45c-.51.04-1.21-.12-1.84-.91-.64-.8-.77-1.67-.4-2.62l1.97.56Z"/><circle class="cls-1" cx="124.74" cy="131.78" r="84.33"/><g class="cls-9"><path class="cls-6" d="m59.86,195.97c17.62,16.61,40.72,24.92,63.81,24.92l-90.15-84.99c.03,21.84,8.85,43.58,26.34,60.07Z"/><path class="cls-5" d="m53.32,82.54c-13.35,15.66-19.83,34.55-19.81,53.36l90.15,84.99L59.63,75.14l-6.31,7.4Z"/><polygon class="cls-3" points="59.63 75.14 123.67 220.89 123.67 0 59.63 75.14"/><path class="cls-5" d="m194.02,82.54l-6.31-7.4-64.04,145.75,90.15-84.99c.02-18.81-6.46-37.7-19.81-53.36Z"/><polygon class="cls-4" points="123.67 0 123.67 220.89 187.71 75.14 123.67 0"/><path class="cls-6" d="m187.48,195.97c-17.62,16.61-40.72,24.92-63.81,24.92l90.15-84.99c-.03,21.84-8.85,43.58-26.34,60.07Z"/></g></g></svg>