<?xml version="1.0" encoding="UTF-8"?><svg id="Layer_2" xmlns="http://www.w3.org/2000/svg" xmlns:xlink="http://www.w3.org/1999/xlink" viewBox="0 0 249.48 256.52"><defs><style>.cls-1,.cls-2{fill:url(#linear-gradient);}.cls-2,.cls-3,.cls-4,.cls-5,.cls-6,.cls-7{stroke-width:0px;}.cls-8{fill:#606;}.cls-9{clip-path:url(#clippath-1);}.cls-3{fill:url(#linear-gradient-2);}.cls-4{fill:url(#linear-gradient-3);}.cls-5{fill:#833981;}.cls-6{fill:#662365;}.cls-7{fill:#fff;}</style><linearGradient id="linear-gradient" x1="40.41" y1="131.78" x2="209.07" y2="131.78" gradientUnits="userSpaceOnUse"><stop offset="0" stop-color="#fff"/><stop offset="1" stop-color="#aa4c9b"/></linearGradient><clipPath id="clippath-1"><circle class="cls-2" cx="124.74" cy="131.78" r="84.33"/></clipPath><linearGradient id="linear-gradient-2" x1="59.63" y1="110.45" x2="123.67" y2="110.45" gradientUnits="userSpaceOnUse"><stop offset="0" stop-color="#fff"/><stop offset=".05" stop-color="#fdfdfd"/><stop offset=".07" stop-color="#f9f6f9"/><stop offset=".08" stop-color="#f8f3f8"/><stop offset="1" stop-color="#aa4c9b"/></linearGradient><linearGradient id="linear-gradient-3" x1="123.67" y1="110.45" x2="187.71" y2="110.45" xlink:href="#linear-gradient"/></defs><g id="Layer_1-2"><circle class="cls-8" cx="124.74" cy="131.78" r="124.74"/><path class="cls-7" d="m71.98,48.71l-5.23-2.47-.15,2.3,1.72,2.59-1.98,1.32-6.49-9.77,1.98-1.32,2.8,4.22.29-6.27,2.35-1.56-.37,5.93,7.43,3.45-2.36,1.57Z"/><path class="cls-7" d="m76.62,45.84l-1.47-12.33,2.05-1,8.8,8.75-2.28,1.11-1.62-1.69-3.53,1.72.33,2.31-2.29,1.12Zm1.64-5.51l2.38-1.16-3-3.13.62,4.29Z"/><path class="cls-7" d="m93.92,26.09l3.7,11.13-1.89.63-6.63-5.45,2.29,6.89-2.15.71-3.7-11.13,1.87-.62,6.67,5.54-2.32-6.98,2.15-.71Z"/><path class="cls-7" d="m106.53,26.39c-.65-.69-1.33-.96-2.5-.73-1.05.2-1.53.8-1.37,1.58.17.9.99,1.16,2.6,1.25,2.52.14,3.78.83,4.17,2.87.36,1.89-.62,3.6-3.33,4.12-2.02.39-3.53.11-4.8-1.03l1.55-1.58c.77.65,1.54.9,2.73.67,1.34-.26,1.67-.93,1.54-1.63-.15-.8-.73-1.16-2.69-1.28-2.39-.16-3.73-1.03-4.1-2.93-.35-1.82.58-3.47,3.31-4,1.84-.35,3.34,0,4.4,1.11l-1.51,1.59Z"/><path class="cls-7" d="m112.78,34.15l3.28-11.98,2.27-.15,4.86,11.43-2.53.17-.86-2.17-3.92.26-.56,2.27-2.54.17Zm3.6-4.49l2.65-.18-1.6-4.03-1.05,4.21Z"/><path class="cls-7" d="m129.16,31.65l4.93.25-.1,2-7.3-.37.59-11.72,2.38.12-.49,9.71Z"/><path class="cls-7" d="m140.32,32.75l4.87.79-.32,1.98-7.22-1.17,1.87-11.58,2.35.38-1.55,9.6Z"/><path class="cls-7" d="m150.95,37.06l-2.3-.6,2.96-11.35,2.3.6-2.96,11.35Z"/><path class="cls-7" d="m164.42,32.38c-.2-.93-.64-1.51-1.76-1.92-1-.37-1.72-.11-2,.64-.32.86.24,1.5,1.57,2.41,2.08,1.42,2.8,2.67,2.08,4.61-.67,1.8-2.4,2.76-4.98,1.8-1.93-.71-3.07-1.74-3.57-3.37l2.14-.55c.32.95.85,1.57,1.98,1.99,1.28.47,1.91.07,2.16-.6.28-.77-.02-1.37-1.63-2.49-1.96-1.38-2.66-2.82-1.98-4.63.64-1.74,2.29-2.67,4.91-1.7,1.75.65,2.86,1.73,3.19,3.23l-2.12.58Z"/><path class="cls-7" d="m178.83,35.82l-.92,1.8-4.39-2.25-1.2,2.34,3.93,2.02-.91,1.78-3.93-2.02-1.4,2.72,4.39,2.25-.92,1.78-6.5-3.33,5.35-10.43,6.5,3.33Z"/><path class="cls-7" d="m189.97,42.93l-1.12,1.68-2.68-1.79-5.39,8.07-1.98-1.32,5.39-8.07-2.68-1.79,1.12-1.68,7.35,4.91Z"/><path class="cls-7" d="m18.38,134.89l-4.13.2-.12-2.38,11.72-.58.21,4.19c.13,2.7-1.02,4.44-3.54,4.57-2.48.12-3.92-1.48-4.05-4.19l-.09-1.82Zm2.08,1.38c.08,1.65.69,2.31,1.95,2.25,1.12-.06,1.7-.78,1.62-2.43l-.07-1.48-3.57.18.07,1.48Z"/><path class="cls-7" d="m27.96,151.51l-2,.34-.82-4.86-2.6.44.73,4.36-1.98.33-.73-4.36-3.02.51.82,4.86-1.98.33-1.21-7.21,11.57-1.95,1.21,7.21Z"/><path class="cls-7" d="m19.38,164.67l3.82-3.33-.54-1.83-4.42,1.31-.68-2.28,11.24-3.33,1.19,4.02c.77,2.59.09,4.55-2.19,5.22-1.52.45-2.72.04-3.58-1.03l-4.1,3.75-.74-2.51Zm5.65-4.19c.4,1.35.92,2.05,2.1,1.7,1.17-.35,1.27-1.23.87-2.58l-.45-1.53-2.97.88.45,1.53Z"/><path class="cls-7" d="m36.33,175.45l-6.36,2.85c-3.17,1.42-5.26.27-6.32-2.11-1.06-2.37-.52-4.7,2.63-6.11l6.38-2.85.97,2.17-6.38,2.85c-1.83.82-2.37,1.79-1.77,3.12s1.67,1.58,3.51.76l6.38-2.85.97,2.17Z"/><path class="cls-7" d="m39.04,186.14c.42-.85.43-1.58-.19-2.59-.56-.91-1.28-1.15-1.96-.73-.78.48-.74,1.33-.26,2.87.76,2.41.55,3.83-1.22,4.91-1.64,1-3.59.68-5.03-1.67-1.07-1.75-1.34-3.26-.72-4.86l2.02.89c-.34.94-.3,1.76.33,2.79.71,1.16,1.46,1.24,2.07.87.7-.43.83-1.09.26-2.97-.69-2.29-.35-3.85,1.3-4.87,1.58-.97,3.45-.68,4.91,1.7.98,1.59,1.18,3.13.51,4.51l-2.02-.86Z"/><path class="cls-7" d="m49.71,195.48l-1.59,1.25-1.99-2.54-7.63,5.99-1.47-1.87,7.63-5.99-1.99-2.54,1.59-1.25,5.46,6.95Z"/><path class="cls-7" d="m42.41,204.98l11.22-5.34,1.6,1.62-5.48,11.15-1.78-1.8,1.08-2.07-2.76-2.8-2.09,1.06-1.79-1.81Zm5.75-.2l1.86,1.89,2.01-3.85-3.87,1.96Z"/><path class="cls-7" d="m55.19,216.96l-1.83-1.52,7.49-9.03,1.83,1.52-7.49,9.03Z"/><path class="cls-7" d="m72.88,215.27l-1.14,1.67-2.67-1.82-5.46,8.02-1.97-1.34,5.46-8.02-2.67-1.82,1.14-1.67,7.31,4.97Z"/><path class="cls-7" d="m73.98,229.42c-2.34-1.21-3.26-3.48-1.61-6.67l.76-1.48c1.66-3.22,4.02-3.76,6.37-2.55,2.36,1.22,3.29,3.46,1.62,6.67l-.76,1.48c-1.65,3.19-4.02,3.76-6.38,2.54Zm.5-5.57c-1.03,1.99-.81,3.16.42,3.79,1.22.63,2.32.14,3.35-1.85l.76-1.48c1.03-1.99.79-3.17-.43-3.8-1.22-.63-2.3-.14-3.33,1.86l-.76,1.48Z"/><path class="cls-7" d="m84.36,231.08c.16.62.59,1.13,1.2,1.36,1.07.4,1.85.04,2.57-1.87l2.55-6.76,2.23.84-2.55,6.76c-1.19,3.17-3.06,3.83-5.37,2.96-1.58-.59-2.52-1.6-2.87-2.95l2.24-.34Z"/><path class="cls-7" d="m104.31,227.81l-.5,1.96-4.78-1.21-.65,2.55,4.28,1.08-.49,1.94-4.28-1.08-.75,2.97,4.78,1.21-.49,1.94-7.09-1.79,2.87-11.37,7.09,1.79Z"/><path class="cls-7" d="m116.78,229.61l-1.44,11.64-1.97-.24-3.65-7.77-.89,7.21-2.24-.28,1.44-11.64,1.96.24,3.65,7.87.9-7.31,2.24.28Z"/><path class="cls-7" d="m132.88,241.42c-2.63.19-4.59-1.27-4.85-4.84l-.12-1.66c-.26-3.61,1.47-5.31,4.1-5.5,2.64-.19,4.61,1.23,4.87,4.84l.12,1.66c.26,3.58-1.47,5.31-4.12,5.5Zm-2.48-5.02c.16,2.24.96,3.12,2.33,3.02,1.37-.1,2.05-1.09,1.89-3.32l-.12-1.66c-.16-2.24-.98-3.12-2.35-3.02s-2.03,1.09-1.87,3.32l.12,1.66Z"/><path class="cls-7" d="m147.04,230.46c-.66-.68-1.33-.95-2.5-.72-1.05.21-1.52.8-1.37,1.59.18.9.99,1.15,2.6,1.23,2.52.12,3.78.81,4.19,2.84.37,1.88-.6,3.6-3.3,4.14-2.02.4-3.53.13-4.81-1l1.54-1.59c.77.65,1.55.89,2.73.65,1.33-.27,1.67-.94,1.53-1.64-.16-.8-.73-1.15-2.7-1.27-2.39-.15-3.74-1.01-4.11-2.91-.36-1.82.56-3.47,3.29-4.02,1.83-.36,3.34-.02,4.41,1.08l-1.5,1.6Z"/><path class="cls-7" d="m154.47,237.65l.2-12.42,2.16-.71,7.55,9.86-2.41.79-1.38-1.89-3.73,1.23.02,2.34-2.42.8Zm2.37-5.24l2.52-.83-2.55-3.51.03,4.34Z"/><path class="cls-7" d="m167.98,232.93l-1.42-12.34,2.05-.99,8.77,8.8-2.28,1.1-1.61-1.7-3.54,1.71.32,2.32-2.3,1.11Zm1.67-5.51l2.39-1.15-2.99-3.15.6,4.3Z"/><path class="cls-7" d="m183.2,218.5l-.84-7.13,1.88-1.26,6.53,9.75-1.89,1.27-4.05-6.05.76,5.71-1.2.8-4.94-2.85,4.02,6.01-1.88,1.26-6.53-9.75,1.85-1.24,6.3,3.48Z"/><path class="cls-7" d="m197.24,214.49l-1.81,1.54-7.6-8.94,1.81-1.54,7.6,8.94Z"/><path class="cls-7" d="m199.62,200.12c-.93-.19-1.63-.02-2.46.84-.74.77-.79,1.53-.22,2.08.66.64,1.47.38,2.84-.47,2.14-1.33,3.57-1.49,5.06-.05,1.38,1.33,1.56,3.3-.35,5.28-1.43,1.48-2.82,2.12-4.52,1.92l.36-2.18c1,.09,1.78-.15,2.61-1.02.94-.98.84-1.72.32-2.22-.59-.57-1.26-.53-2.94.5-2.05,1.24-3.64,1.3-5.04-.05-1.33-1.29-1.52-3.17.42-5.18,1.3-1.34,2.73-1.92,4.24-1.62l-.32,2.17Z"/><path class="cls-7" d="m209.74,193.04l-3.23-6.41,1.34-1.82,9.47,6.93-1.35,1.84-5.87-4.3,2.66,5.11-.85,1.17-5.62-.99,5.83,4.27-1.34,1.82-9.46-6.93,1.31-1.8,7.11,1.11Z"/><path class="cls-7" d="m213.56,174.58l1.78.96-2.35,4.33,2.32,1.26,2.11-3.88,1.76.96-2.11,3.88,2.69,1.46,2.35-4.33,1.76.96-3.48,6.42-10.31-5.59,3.48-6.42Z"/><path class="cls-7" d="m228.44,169.49l-5.06.27-.7,1.77,4.28,1.69-.87,2.21-10.91-4.31,1.54-3.9c.99-2.51,2.73-3.64,4.95-2.76,1.47.58,2.17,1.64,2.19,3.02l5.54-.43-.96,2.43Zm-7.04-.18c.52-1.31.53-2.18-.6-2.63-1.14-.45-1.75.19-2.27,1.5l-.59,1.49,2.88,1.14.59-1.49Z"/><path class="cls-7" d="m232.58,155.57l-5.52,1.7,1.44,1.8,3.02.75-.58,2.31-11.38-2.84.58-2.31,4.92,1.23-4.02-4.82.68-2.74,3.73,4.63,7.82-2.46-.69,2.75Z"/><path class="cls-7" d="m234.35,145.56l-.34,2.36-11.61-1.65.34-2.36,11.61,1.65Z"/><path class="cls-7" d="m223.65,131.34l2.02.09-.15,3.23,9.7.45-.11,2.38-9.7-.45-.15,3.23-2.02-.09.41-8.83Z"/><circle class="cls-1" cx="124.74" cy="131.78" r="84.33"/><g class="cls-9"><path class="cls-6" d="m59.86,195.97c17.62,16.61,40.72,24.92,63.81,24.92l-90.15-84.99c.03,21.84,8.85,43.58,26.34,60.07Z"/><path class="cls-5" d="m53.32,82.54c-13.35,15.66-19.83,34.55-19.81,53.36l90.15,84.99L59.63,75.14l-6.31,7.4Z"/><polygon class="cls-3" points="59.63 75.14 123.67 220.89 123.67 0 59.63 75.14"/><path class="cls-5" d="m194.02,82.54l-6.31-7.4-64.04,145.75,90.15-84.99c.02-18.81-6.46-37.7-19.81-53.36Z"/><polygon class="cls-4" points="123.67 0 123.67 220.89 187.71 75.14 123.67 0"/><path class="cls-6" d="m187.48,195.97c-17.62,16.61-40.72,24.92-63.81,24.92l90.15-84.99c-.03,21.84-8.85,43.58-26.34,60.07Z"/></g></g></svg>