<svg xmlns="http://www.w3.org/2000/svg" height="342.89" width="1214.34">
    <path d="M467.29 229.2v-28.62h-4.56v28.26c0 6.48-4.14 10.74-10.38 10.74-6.24 0-10.32-4.26-10.32-10.74v-28.26h-4.56v28.62c0 8.52 6.24 14.46 14.88 14.46s14.94-5.94 14.94-14.46m41.16-24.54v-4.08h-29.28v4.08h12.36v38.64h4.56v-38.64zm41.82 26.82c0-5.1-2.88-8.64-6.96-10.14a9.8 9.8 0 0 0 6.3-9.36c0-7.14-5.16-11.4-12.6-11.4h-16.08v42.72h16.62c7.56 0 12.72-4.08 12.72-11.82m-5.22-19.44c0 5.1-3.66 7.44-8.4 7.44h-11.16v-14.82h11.16c4.74 0 8.4 2.28 8.4 7.38m.66 19.32c0 4.8-3.3 7.86-8.58 7.86h-11.64v-15.66h11.64c5.28 0 8.58 3 8.58 7.8m24.36-30.78h-4.56v42.72h4.56zm43.26 42.72v-4.08h-21.84v-38.64h-4.56v42.72zm42.12-21.84c0-5.94.24-12.48-4.2-16.92-2.58-2.58-6.36-3.96-10.8-3.96H625.8v42.72h14.64c4.44 0 8.22-1.38 10.8-3.96 4.44-4.44 4.2-11.94 4.2-17.88m-4.56 0c0 5.22.12 11.58-2.82 14.64-2.22 2.28-5.1 3.12-8.4 3.12h-9.3v-34.56h9.3c3.3 0 6.18.84 8.4 3.12 2.94 3.06 2.82 8.46 2.82 13.68m51.36 21.84v-42.72h-4.56v34.14L675 200.58h-4.32v42.72h4.56v-34.26l22.68 34.26zm21.42-42.72h-4.56v42.72h4.56zm48.42 42.72v-42.72h-4.56v34.14l-22.68-34.14h-4.32v42.72h4.56v-34.26l22.68 34.26zm45.24-15.6v-6.78h-15.06v4.02h10.5v3.24c0 3.3-.66 5.64-2.4 7.74a10.41 10.41 0 0 1-8.1 3.66c-2.82 0-5.52-1.08-7.38-3-2.7-2.76-3-5.7-3-14.64 0-8.94.3-11.82 3-14.58a10.34 10.34 0 0 1 7.38-3.06c5.34 0 9.18 3.3 10.38 8.7h4.56c-1.26-7.5-6.78-12.78-14.94-12.78-4.26 0-8.04 1.56-10.92 4.44-4.02 4.02-4.02 8.22-4.02 17.28s0 13.26 4.02 17.28a15.23 15.23 0 0 0 10.92 4.44c4.38 0 8.4-1.68 11.4-4.92 2.64-2.82 3.66-6.12 3.66-11.04m40.86 3.84c0-3.54-1.26-6.48-3.6-8.46-1.8-1.56-3.78-2.4-7.8-3l-4.68-.72c-2.22-.36-4.44-1.2-5.76-2.34-1.32-1.14-1.92-2.82-1.92-4.92 0-4.74 3.3-7.92 9-7.92 4.5 0 7.32 1.26 9.96 3.66l2.94-2.94c-3.66-3.3-7.26-4.68-12.72-4.68-8.46 0-13.68 4.8-13.68 12.06 0 3.42 1.08 6.06 3.24 7.98 1.86 1.62 4.5 2.7 7.86 3.24l4.98.78c3.12.48 4.2.84 5.58 2.04 1.38 1.2 2.04 3.12 2.04 5.34 0 4.98-3.84 7.92-10.08 7.92-4.8 0-8.1-1.14-11.64-4.68l-3.12 3.12c4.02 4.02 8.22 5.64 14.64 5.64 8.88 0 14.76-4.62 14.76-12.12m38.8 0c0-3.54-1.25-6.48-3.6-8.46-1.8-1.56-3.77-2.4-7.8-3l-4.67-.72c-2.22-.36-4.44-1.2-5.76-2.34-1.32-1.14-1.92-2.82-1.92-4.92 0-4.74 3.3-7.92 9-7.92 4.5 0 7.32 1.26 9.96 3.66l2.94-2.94c-3.66-3.3-7.26-4.68-12.72-4.68-8.46 0-13.68 4.8-13.68 12.06 0 3.42 1.08 6.06 3.24 7.98 1.86 1.62 4.5 2.7 7.86 3.24l4.98.78c3.12.48 4.2.84 5.58 2.04 1.38 1.2 2.04 3.12 2.04 5.34 0 4.98-3.84 7.92-10.08 7.92-4.8 0-8.1-1.14-11.64-4.68l-3.12 3.12c4.02 4.02 8.22 5.64 14.64 5.64 8.88 0 14.76-4.62 14.76-12.12m35.94-26.88v-4.08h-29.28v4.08h12.36v38.64h4.56v-38.64zm37.56-4.08h-4.92l-9.96 20.46-10.08-20.46h-4.92l12.72 25.08v17.64h4.56v-17.64zm41.04 42.72l-10.14-19.38c5.52-1.14 9.3-5.22 9.3-11.46 0-7.38-5.22-11.88-12.66-11.88h-16.38v42.72h4.56v-18.96h10.26l9.72 18.96zm-5.4-30.78c0 5.22-3.54 7.8-8.52 7.8h-11.4v-15.66h11.4c4.98 0 8.52 2.64 8.52 7.86m45.9 30.78v-4.08h-21.96V223.8h18.72v-4.08h-18.72v-15.06h21.96v-4.08h-26.52v42.72zm40.38 0v-4.08h-21.84v-38.64h-4.56v42.72zm35.82-11.76c0-3.54-1.26-6.48-3.6-8.46-1.8-1.56-3.78-2.4-7.8-3l-4.68-.72c-2.22-.36-4.44-1.2-5.76-2.34-1.32-1.14-1.92-2.82-1.92-4.92 0-4.74 3.3-7.92 9-7.92 4.5 0 7.32 1.26 9.96 3.66l2.94-2.94c-3.66-3.3-7.26-4.68-12.72-4.68-8.46 0-13.68 4.8-13.68 12.06 0 3.42 1.08 6.06 3.24 7.98 1.86 1.62 4.5 2.7 7.86 3.24l4.98.78c3.12.48 4.2.84 5.58 2.04 1.38 1.2 2.04 3.12 2.04 5.34 0 4.98-3.84 7.92-10.08 7.92-4.8 0-8.1-1.14-11.64-4.68l-3.12 3.12c4.02 4.02 8.22 5.64 14.64 5.64 8.88 0 14.76-4.62 14.76-12.12m40.55 11.76v-4.08h-21.95V223.8h18.71v-4.08h-18.71v-15.06h21.95v-4.08h-26.51v42.72zm45.55 0v-42.72h-4.56v34.14l-22.68-34.14h-4.32v42.72h4.56v-34.26l22.68 34.26h4.32M466.33 133.94c0-9.06 0-13.26-4.02-17.28a15.13 15.13 0 0 0-10.92-4.44c-4.26 0-8.04 1.56-10.92 4.44-4.02 4.02-4.02 8.22-4.02 17.28s0 13.26 4.02 17.28a15.13 15.13 0 0 0 10.92 4.44c4.26 0 8.04-1.56 10.92-4.44 4.02-4.02 4.02-8.22 4.02-17.28m-4.56 0c0 8.94-.3 11.82-3 14.58a10.34 10.34 0 0 1-7.38 3.06c-2.82 0-5.52-1.14-7.38-3.06-2.7-2.76-3-5.64-3-14.58 0-8.94.3-11.82 3-14.58a10.34 10.34 0 0 1 7.38-3.06c2.82 0 5.52 1.14 7.38 3.06 2.7 2.76 3 5.64 3 14.58m48.9-8.82c0-7.68-5.4-12.54-13.2-12.54h-15.9v42.72h4.56v-17.58h11.34c7.8 0 13.2-4.92 13.2-12.6m-4.56 0c0 5.64-3.72 8.52-9.06 8.52h-10.92v-16.98h10.92c5.34 0 9.06 2.82 9.06 8.46m44.28 30.18v-4.08h-21.96V135.8h18.72v-4.08h-18.72v-15.06h21.96v-4.08h-26.52v42.72zm38.88-38.64v-4.08h-29.28v4.08h12.36v38.64h4.56v-38.64zm41.7 24.54v-28.62h-4.56v28.26c0 6.48-4.14 10.74-10.38 10.74-6.24 0-10.32-4.26-10.32-10.74v-28.26h-4.56v28.62c0 8.52 6.24 14.46 14.88 14.46s14.94-5.94 14.94-14.46m42 2.34c0-3.54-1.26-6.48-3.6-8.46-1.8-1.56-3.78-2.4-7.8-3l-4.68-.72c-2.22-.36-4.44-1.2-5.76-2.34-1.32-1.14-1.92-2.82-1.92-4.92 0-4.74 3.3-7.92 9-7.92 4.5 0 7.32 1.26 9.96 3.66l2.94-2.94c-3.66-3.3-7.26-4.68-12.72-4.68-8.46 0-13.68 4.8-13.68 12.06 0 3.42 1.08 6.06 3.24 7.98 1.86 1.62 4.5 2.7 7.86 3.24l4.98.78c3.12.48 4.2.84 5.58 2.04 1.38 1.2 2.04 3.12 2.04 5.34 0 4.98-3.84 7.92-10.08 7.92-4.8 0-8.1-1.14-11.64-4.68l-3.12 3.12c4.02 4.02 8.22 5.64 14.64 5.64 8.88 0 14.76-4.62 14.76-12.12m43.44 11.76v-42.72h-4.56v19.14h-20.28v-19.14H687v42.72h4.56v-19.5h20.28v19.5zm46.62 0l-15.66-42.72h-3.84L727.8 155.3h4.86l3.42-9.66h18.66l3.42 9.66zm-9.6-13.62h-15.96l8.04-22.56zm47.4 13.62v-4.08h-21.84v-38.64h-4.56v42.72zm38.88 0v-4.08h-21.84v-38.64h-4.56v42.72zm17.04-42.72h-4.56v42.72h4.56zm41.76 4.08v-4.08h-29.28v4.08h12.36v38.64h4.55v-38.64zm41.7 24.54v-28.62h-4.57v28.26c0 6.48-4.14 10.74-10.38 10.74-6.24 0-10.32-4.26-10.32-10.74v-28.26h-4.56v28.62c0 8.52 6.24 14.46 14.88 14.46s14.94-5.94 14.94-14.46m42 2.34c0-3.54-1.26-6.48-3.6-8.46-1.8-1.56-3.78-2.4-7.8-3l-4.68-.72c-2.22-.36-4.44-1.2-5.76-2.34-1.32-1.14-1.92-2.82-1.92-4.92 0-4.74 3.3-7.92 9-7.92 4.5 0 7.32 1.26 9.96 3.66l2.94-2.94c-3.66-3.3-7.26-4.68-12.72-4.68-8.46 0-13.68 4.8-13.68 12.06 0 3.42 1.08 6.06 3.24 7.98 1.86 1.62 4.5 2.7 7.86 3.24l4.98.78c3.12.48 4.2.84 5.58 2.04 1.38 1.2 2.04 3.12 2.04 5.34 0 4.98-3.84 7.92-10.08 7.92-4.8 0-8.1-1.14-11.64-4.68l-3.12 3.12c4.02 4.02 8.22 5.64 14.64 5.64 8.88 0 14.76-4.62 14.76-12.12" fill="#231f20"/>
    <path d="M350.67 169.76a183.47 183.47 0 0 0-4.55-39.01c-10.83-47.48-52.56-103.45-76.05-99.79-4.94.77-13.59 2.4-25.33 16.26a363.33 363.33 0 0 1 12.9 17.22c8.6-85.66 60.92 21.12 74.75 111.96a16.02 16.02 0 0 0 7.48 3.5c9.16 1.9 10.62-8.4 10.8-10.14m-105.02-78.6c-10.8-3.1-22.03 3.2-33.33 15.26a629.57 629.57 0 0 0-12.4 33.16c-18.02 52.35-40.48 149.29-73.28 137.35a40.68 40.68 0 0 1-8.17-4.07c-4.91 8.15-9.47 14.57-13.61 18.5a43.81 43.81 0 0 1-12.37 8.45c62.23 61.26 176.86 58.7 170.35-17.46-7.98-93.2-7.19-130.8-6.48-186.9a40.52 40.52 0 0 0-10.71-4.3M99.56 98.69C126.5 44.46 167.03-2.94 140.12.14 125.8 1.8 110.83 6.41 96.24 13.67a155.06 155.06 0 0 1 19.16-7.83S59.56 28.81 38.7 94.39a170.5 170.5 0 0 1 27.63-21.56c46.32-29.36-.82 29.29-11.17 103.54 9.3-12.02 21.08-30.7 34.46-51.07 2.57-9.41 5.86-18.4 9.94-26.62" fill="#66c64e"/>
    <path d="M221.27 24.12C141.94-24.2 40.97 247.32 33.41 179.05 13.91 47.49 115.4 5.85 115.4 5.85 50.18 27.4-1.14 93.76.02 170.35c1.17 77 44.15 121.15 59.64 128.82 19.61 9.7 36.75.49 45.2-7.82 32.52-30.92 91.27-214.42 140.79-200.2 55.4 13.27 48.07 130.15 50.74 152.54 5.33 44.65 17.83 39.32 35.23 6.52 11.66-22 19.25-47.33 19.08-80.74 0 0-.83 12.5-10.83 10.42-8.98-1.87-12.33-7.01-34.92-42.35-23.65-36.98-59.8-98.9-83.68-113.43" fill="#2056ae"/>
</svg>
