<?xml version="1.0" encoding="UTF-8"?>
<svg width="46px" height="50px" viewBox="0 0 46 50" version="1.1" xmlns="http://www.w3.org/2000/svg" xmlns:xlink="http://www.w3.org/1999/xlink">
    <!-- Generator: Sketch 61.2 (89653) - https://sketch.com -->
    <title>Download@2x</title>
    <desc>Created with Sketch.</desc>
    <g id="ePerusteet-LOPS" stroke="none" stroke-width="1" fill="none" fill-rule="evenodd">
        <g id="Pdf:n-vienti_ei-luotu" transform="translate(-332.000000, -742.000000)" fill="#B2B2B2">
            <g id="Group" transform="translate(302.000000, 690.000000)">
                <path d="M61.707,76.293 C62.0973819,76.6834999 62.0973819,77.3165001 61.707,77.707 L53.707,85.707 C53.3165001,86.0973819 52.6834999,86.0973819 52.293,85.707 L44.293,77.707 C43.9140278,77.3146211 43.9194476,76.6909152 44.3051814,76.3051814 C44.6909152,75.9194476 45.3146211,75.9140278 45.707,76.293 L52,82.586 L52,63 C52,62.4477153 52.4477153,62 53,62 C53.5522847,62 54,62.4477153 54,63 L54,82.586 L60.293,76.293 C60.6834999,75.9026181 61.3165001,75.9026181 61.707,76.293 Z M76,55 L76,99 C76,100.656854 74.6568542,102 73,102 L33,102 C31.3431458,102 30,100.656854 30,99 L30,55 C30,53.3431458 31.3431458,52 33,52 L73,52 C74.6568542,52 76,53.3431458 76,55 Z M74,55 C74,54.4477153 73.5522847,54 73,54 L33,54 C32.4477153,54 32,54.4477153 32,55 L32,99 C32,99.5522847 32.4477153,100 33,100 L73,100 C73.5522847,100 74,99.5522847 74,99 L74,55 Z M61,90 L45,90 C44.4477153,90 44,90.4477153 44,91 C44,91.5522847 44.4477153,92 45,92 L61,92 C61.5522847,92 62,91.5522847 62,91 C62,90.4477153 61.5522847,90 61,90 Z" id="Download"></path>
            </g>
        </g>
    </g>
</svg>