<?xml version="1.0" encoding="UTF-8"?>
<svg width="82px" height="122px" viewBox="0 0 82 122" version="1.1" xmlns="http://www.w3.org/2000/svg" xmlns:xlink="http://www.w3.org/1999/xlink">
    <!-- Generator: Sketch 61.2 (89653) - https://sketch.com -->
    <title>pdfkuva_etusivu@2x</title>
    <desc>Created with Sketch.</desc>
    <g id="ASSETIT-+-tekstityylit" stroke="none" stroke-width="1" fill="none" fill-rule="evenodd">
        <g id="ASSETIT---Kuvat-ja-grafiikka" transform="translate(-239.000000, -3719.000000)">
            <g id="pdfkuva_etusivu" transform="translate(239.000000, 3719.000000)">
                <path d="M78,8 L78,12 L80,12 L80,121 L1,121 L1,8 L78,8 Z" id="Combined-Shape" fill="#99B3F1"></path>
                <circle id="Oval-Copy-2" stroke="#979797" fill="#F2F2F2" cx="40.5" cy="29.5" r="5.5"></circle>
                <path d="M77,8 L1,8 L1,120 C1,120.552285 1.44771525,121 2,121 L79,121 C79.5522847,121 80,120.552285 80,120 L80,13 L77,13 L77,8 Z" id="Combined-Shape" stroke="#8B8B8B" stroke-width="2"></path>
                <path d="M77.5,13 L77,13 L77,1 L77.5,1 L7,1 C3.6862915,1 1,3.6862915 1,7 C1,10.3137085 3.6862915,13 7,13 L77.5,13 Z M77.5,1 L78,1 L80.942407,1.00165986 L80.9995279,1 L77.5,1 Z" id="Combined-Shape" stroke="#8B8B8B" stroke-width="2" fill="#FFFFFF" fill-rule="nonzero"></path>
            </g>
        </g>
    </g>
</svg>