<?xml version="1.0" encoding="UTF-8"?>
<svg width="40px" height="40px" viewBox="0 0 40 40" version="1.1" xmlns="http://www.w3.org/2000/svg" xmlns:xlink="http://www.w3.org/1999/xlink">
    <!-- Generator: Sketch 61.2 (89653) - https://sketch.com -->
    <title>ikonit/pdf@2x</title>
    <desc>Created with Sketch.</desc>
    <g id="ePerusteet-LOPS" stroke="none" stroke-width="1" fill="none" fill-rule="evenodd">
        <g id="Pdf:n-vienti" transform="translate(-327.000000, -443.000000)" fill="#99B3F1" fill-rule="nonzero">
            <g id="julkinen/paikalliset-ops" transform="translate(302.000000, 423.000000)">
                <path d="M60.3794651,20.7589287 L37.2991075,20.7589287 C35.183408,20.7589287 33.4523812,22.4899555 33.4523812,24.6056549 L33.4523812,47.6860126 C33.4523812,49.801712 35.183408,51.5327389 37.2991075,51.5327389 L60.3794651,51.5327389 C62.4951646,51.5327389 64.2261914,49.801712 64.2261914,47.6860126 L64.2261914,24.6056549 C64.2261914,22.4899555 62.4951646,20.7589287 60.3794651,20.7589287 Z M44.0308785,35.1841522 C44.0308785,36.7805436 42.7422252,38.0691969 41.1458338,38.0691969 L39.2224706,38.0691969 L39.2224706,41.9159232 L36.3374259,41.9159232 L36.3374259,30.3757443 L41.1458338,30.3757443 C42.7422252,30.3757443 44.0308785,31.6643976 44.0308785,33.2607891 L44.0308785,35.1841522 Z M53.6476941,39.0308785 C53.6476941,40.6272699 52.3590408,41.9159232 50.7626494,41.9159232 L45.9542416,41.9159232 L45.9542416,30.3757443 L50.7626494,30.3757443 C52.3590408,30.3757443 53.6476941,31.6643976 53.6476941,33.2607891 L53.6476941,39.0308785 Z M61.3411467,33.2607891 L58.456102,33.2607891 L58.456102,35.1841522 L61.3411467,35.1841522 L61.3411467,38.0691969 L58.456102,38.0691969 L58.456102,41.9159232 L55.5710573,41.9159232 L55.5710573,30.3757443 L61.3411467,30.3757443 L61.3411467,33.2607891 Z M39.2224706,35.1841522 L41.1458338,35.1841522 L41.1458338,33.2607891 L39.2224706,33.2607891 L39.2224706,35.1841522 Z M29.6056549,28.4523812 L25.7589287,28.4523812 L25.7589287,55.3794651 C25.7589287,57.4951646 27.4899555,59.2261914 29.6056549,59.2261914 L56.5327389,59.2261914 L56.5327389,55.3794651 L29.6056549,55.3794651 L29.6056549,28.4523812 Z M48.8392863,39.0308785 L50.7626494,39.0308785 L50.7626494,33.2607891 L48.8392863,33.2607891 L48.8392863,39.0308785 Z" id="ikonit/pdf"></path>
            </g>
        </g>
    </g>
</svg>