<?xml version="1.0" encoding="UTF-8"?>
<svg width="108px" height="142px" viewBox="0 0 108 142" version="1.1" xmlns="http://www.w3.org/2000/svg" xmlns:xlink="http://www.w3.org/1999/xlink">
    <!-- Generator: Sketch 61.2 (89653) - https://sketch.com -->
    <title>pdfkuva_header@2x</title>
    <desc>Created with Sketch.</desc>
    <g id="ASSETIT-+-tekstityylit" stroke="none" stroke-width="1" fill="none" fill-rule="evenodd">
        <g id="ASSETIT---Kuvat-ja-grafiikka" transform="translate(-65.000000, -3719.000000)">
            <g id="pdfkuva_header" transform="translate(65.000000, 3719.000000)">
                <rect id="Rectangle" fill="#FFFFFF" fill-rule="nonzero" x="27" y="19" width="73" height="94"></rect>
                <path d="M107,1 L23.3494673,1 L1.80354246,24.1595355 C1.28709506,24.7146605 1,25.4447482 1,26.2029577 L1,137.996821 C1,138.89474 1.4022013,139.745449 2.09613311,140.315288 C3.37658727,141.366765 5.2669907,141.181142 6.31846735,139.900688 L20.9415119,122.093219 C21.8908633,120.937129 23.3079792,120.266843 24.8039105,120.26633 L107,120.238159 L107,1 Z M98,7 C99.6568542,7 101,8.34314575 101,10 L101,111 C101,112.656854 99.6568542,114 98,114 L29,114 C27.3431458,114 26,112.656854 26,111 L26,10 C26,8.34314575 27.3431458,7 29,7 L98,7 Z" id="Combined-Shape" stroke="#8B8B8B" stroke-width="2" fill="#E6E6E6"></path>
                <path d="M29,8 L98,8 C99.1045695,8 100,8.8954305 100,10 L100,19 L100,19 L27,19 L27,10 C27,8.8954305 27.8954305,8 29,8 Z" id="Rectangle-Copy-7" fill="#99B3F1"></path>
            </g>
        </g>
    </g>
</svg>