<?xml version="1.0" encoding="UTF-8"?>
<svg width="19.523mm" height="10.34mm" version="1.1" viewBox="0 0 19.523 10.34" xmlns="http://www.w3.org/2000/svg">
 <g transform="translate(-38.665 -137.02)">
  <g stroke-width=".26458" aria-label="ð‘“(x)">
   <path d="m40.97 145.14q-0.23771 1.1214-0.72864 1.6692-0.49093 0.55293-1.2351 0.55293-0.21704 0-0.34106-0.0258l0.08785-0.45476q0.05168 0.0155 0.24288 0.0155 0.23254 0 0.39791-0.11886 0.16536-0.11885 0.30489-0.41341 0.14469-0.29456 0.26355-0.81649l1.111-4.9144h-0.87333l0.07751-0.35656q0.34623-0.0207 0.49609-0.0568 0.15503-0.0362 0.23771-0.10852 0.08785-0.0724 0.14469-0.18603 0.06201-0.11886 0.15503-0.42892 0.27388-0.93017 0.84233-1.3953 0.57361-0.47026 1.4573-0.47026 0.50643 0 0.87333 0.0827l-0.20154 0.87849h-0.45475q-0.07235-0.29455-0.1912-0.42374-0.11369-0.12919-0.34106-0.12919-0.29456 0-0.50126 0.16536-0.20154 0.1602-0.34623 0.48059-0.14469 0.3204-0.26872 0.863l-0.12919 0.56327h1.3281l-0.11369 0.52193h-1.3333z"/>
   <path d="m47.853 137.02q-0.69246 1.1886-1.0284 2.3513t-0.3359 2.3564q0 1.1937 0.3359 2.3668 0.34106 1.1679 1.0284 2.3513h-0.82682q-0.77515-1.2144-1.1627-2.3874-0.38241-1.173-0.38241-2.3306 0-1.1524 0.38241-2.3203 0.3824-1.1679 1.1627-2.3874z"/>
   <path d="m54.514 139.27-2.0929 2.8164 2.2014 2.9714h-1.1214l-1.6847-2.2738-1.6847 2.2738h-1.1214l2.2479-3.0282-2.0567-2.7595h1.1214l1.5348 2.0619 1.5348-2.0619z"/>
   <path d="m55.816 137.02h0.82682q0.77515 1.2196 1.1576 2.3874 0.38757 1.1679 0.38757 2.3203 0 1.1576-0.38757 2.3306-0.3824 1.1731-1.1576 2.3874h-0.82682q0.6873-1.1834 1.0232-2.3513 0.34106-1.173 0.34106-2.3668 0-1.1937-0.34106-2.3564-0.3359-1.1627-1.0232-2.3513z"/>
  </g>
 </g>
</svg>
