<svg xmlns="http://www.w3.org/2000/svg" xmlns:xlink="http://www.w3.org/1999/xlink" width="2503" height="300" viewBox="0 0 2503 300">
  <defs>
    <linearGradient id="linear-gradient" x1="0.5" x2="0.5" y2="1" gradientUnits="objectBoundingBox">
      <stop offset="0" stop-color="#8d408d"/>
      <stop offset="1" stop-color="#606"/>
    </linearGradient>
  </defs>
  <g id="Group_621" data-name="Group 621" transform="translate(-4147 -6609)">
    <g id="Group_592" data-name="Group 592" transform="translate(-7288 -251)">
      <g id="Rectangle" transform="translate(11435 6860)">
        <rect id="Rectangle-2" data-name="Rectangle" width="2503" height="300" fill="url(#linear-gradient)"/>
      </g>
    </g>
    <g id="aallot_siniset" data-name="aallot/siniset" transform="translate(5582 6609)" opacity="0.4">
      <g id="Path">
        <path id="Path-2" data-name="Path" d="M0,0S272.44,13.305,507.588,92.233,811.188,291,1068,300V0Z" fill="none"/>
        <path id="Path-3" data-name="Path" d="M0,0S272.44,13.305,507.588,92.233,811.188,291,1068,300V0Z" fill="rgba(0,0,0,0.2)"/>
      </g>
      <g id="Path_Copy" data-name="Path Copy">
        <path id="Path_Copy-2" data-name="Path Copy" d="M0,0S147.189,12.862,274.231,89.159,438.254,281.3,577,290V0Z" transform="translate(491)" fill="none"/>
        <path id="Path_Copy-3" data-name="Path Copy" d="M0,0S147.189,12.862,274.231,89.159,438.254,281.3,577,290V0Z" transform="translate(491)" fill="rgba(0,0,0,0.2)"/>
      </g>
    </g>
  </g>
</svg>
