<svg xmlns="http://www.w3.org/2000/svg" width="190" height="79.145" viewBox="0 0 190 79.145">
  <g id="Group_603" data-name="Group 603" transform="translate(-1053 -1026)" opacity="0.78">
    <path id="Path_Copy_18" data-name="Path Copy 18" d="M.091,43.906C58.8,60.894,100.349,77.442,190,79.144V7.578C190,3.393,185.971,0,181,0H9.091c-4.971,0-9,3.393-9,7.578Z" transform="translate(1053 1026)" fill="#8d408d"/>
    <g id="Path_Copy_19" data-name="Path Copy 19" transform="translate(1053 1026)">
      <path id="Path_Copy_19-2" data-name="Path Copy 19" d="M0,11c14.436,2.957,28.65,6.479,42.364,10.564C104.312,40.02,122.345,68.038,190,70.144V7.427C190,3.325,185.971,0,181,0H9C4.029,0,0,3.325,0,7.427Z" fill="none"/>
      <path id="Path_Copy_19-3" data-name="Path Copy 19" d="M0,11c14.436,2.957,28.65,6.479,42.364,10.564C104.312,40.02,122.345,68.038,190,70.144V7.427C190,3.325,185.971,0,181,0H9C4.029,0,0,3.325,0,7.427Z" fill="#606"/>
    </g>
  </g>
</svg>
