<svg id="Layer_1" data-name="Layer 1" xmlns="http://www.w3.org/2000/svg" viewBox="0 0 190.27 79.14"><path id="Path_26" data-name="Path 26" d="M96,69.83C70,64.74,47.6,58,23.91,50.91h0c-7.6-2.29-15.45-4.65-23.63-7V7.57c0-4.18,4-7.57,9-7.57h172c5,0,9,3.39,9,7.57V79.14C154.94,78.47,125,75.51,96,69.83Zm94-.14-.73,0Zm-.83,0-.73,0ZM99.31,44.48c25.87,12.66,48.25,23.62,89,25.15C147.56,68.1,125,57,99.31,44.48Zm-8.74-4.25-.33-.16ZM90,40c-1.52-.73-3.06-1.47-4.63-2.2,1.57.73,3.12,1.47,4.64,2.2Zm-4.66-2.27-.75-.35Zm-.9-.42-.51-.24Zm-.79-.37-.57-.26Zm-1-.48-.11-.05Zm-14.1-6.13-.64-.26ZM67.64,30c-6.54-2.64-13.58-5.21-21.3-7.64,7.16,2.25,14.2,4.77,21.3,7.64ZM46.15,22.29l-.74-.23Zm-.94-.3-.85-.26Zm-1.11-.34-.65-.2Zm-.92-.28-.89-.26.89.26Zm-7.33-2.13-.09,0Zm-1.28-.36-.23-.07Zm-1.28-.36-.4-.1ZM32,18.17,31.48,18Zm-1.28-.35-.7-.18Zm-1.28-.34-.82-.22Zm-1.29-.34-.92-.24Zm-1.3-.34-1-.26Zm-1.3-.34-1-.27Zm-1.31-.34-1.07-.27Zm-1.32-.33-1.07-.27Zm-1.32-.33-1-.26Zm-1.34-.33-1-.26ZM19,14.8l-1-.23Zm-1.35-.32-.88-.21Zm-1.36-.33L15.45,14Zm-1.34-.32-.7-.16Zm-1.37-.32L13,13.39Zm-1.36-.31-.37-.09Zm-1.37-.31-.16,0Zm-1.36-.31ZM0,11H0Zm0,0H0Z" transform="translate(0)" fill="#fce4f4"/><path id="Path_25" data-name="Path 25" d="M42.56,21.56C28.87,17.48,14.68,14,.27,11V7.57c0-4.18,4-7.57,9-7.57h172c5,0,9,3.39,9,7.57V70.14C122.59,68,104.54,40,42.56,21.56Z" transform="translate(0)" fill="#fbd9ef"/></svg>